<?xml version="1.0" standalone="no"?>
<!DOCTYPE svg PUBLIC "-//W3C//DTD SVG 20010904//EN"
 "http://www.w3.org/TR/2001/REC-SVG-20010904/DTD/svg10.dtd">
<svg version="1.0" xmlns="http://www.w3.org/2000/svg"
 width="700.000000pt" height="700.000000pt" viewBox="0 0 700.000000 700.000000"
 preserveAspectRatio="xMidYMid meet">
<metadata>
Created by potrace 1.14, written by Peter Selinger 2001-2017
</metadata>
<g transform="translate(0.000000,700.000000) scale(0.100000,-0.100000)"
fill="#000000" stroke="none">
<path d="M3417 6635 c-1 -2 -33 -5 -72 -8 -38 -4 -95 -11 -125 -17 -30 -6 -66
-14 -80 -16 -50 -10 -227 -73 -295 -105 -286 -135 -550 -386 -692 -656 l-38
-73 -100 -1 c-107 -1 -110 -1 -260 -25 -723 -116 -1302 -730 -1381 -1464 -21
-193 -5 -421 42 -602 108 -420 384 -792 762 -1023 l62 -38 1 -636 c1 -618 2
-674 13 -811 39 -458 254 -703 676 -770 133 -21 355 -24 1570 -24 1136 0 1429
4 1530 19 253 40 366 91 495 220 63 63 90 100 122 165 40 81 76 200 87 285 24
196 25 229 25 922 l1 632 23 12 c171 90 418 312 541 487 316 453 396 1005 220
1521 -180 526 -615 931 -1154 1074 -82 22 -142 33 -275 51 -16 3 -75 5 -130 5
l-100 1 -38 73 c-141 269 -388 506 -674 646 -90 45 -254 104 -313 115 -14 2
-36 7 -50 10 -76 18 -172 28 -293 30 -53 2 -98 2 -100 1z m273 -455 c30 -6 66
-13 79 -16 48 -10 148 -48 221 -84 209 -106 380 -276 484 -484 85 -170 114
-302 119 -541 3 -110 8 -159 20 -185 73 -160 288 -175 385 -26 l27 41 0 218 0
218 64 -6 c136 -12 338 -75 460 -143 156 -86 302 -215 407 -357 287 -390 319
-921 81 -1339 -125 -220 -307 -391 -537 -506 -98 -49 -124 -70 -153 -125 -21
-39 -22 -51 -24 -459 -2 -309 -5 -422 -14 -430 -7 -7 -10 -7 -6 -1 3 6 -3 12
-14 12 -10 1 -19 -4 -19 -10 0 -9 -2 -9 -8 -1 -5 9 -10 8 -19 -2 -8 -8 -9 -15
-3 -19 6 -3 10 -1 10 6 0 7 3 9 7 6 3 -4 12 -2 18 3 9 8 14 6 19 -5 3 -9 9
-14 14 -12 4 3 7 -48 7 -113 0 -100 -2 -117 -15 -112 -13 5 -12 2 1 -14 14
-17 16 -50 14 -259 -2 -132 -6 -260 -9 -285 -37 -253 -119 -317 -431 -337
-105 -7 -2573 -10 -2720 -4 -299 14 -402 74 -443 256 -21 92 -23 119 -27 313
-3 140 -1 192 7 192 6 0 8 3 5 7 -4 3 -1 13 6 21 10 13 9 15 -5 10 -17 -7 -19
7 -5 30 5 6 4 12 -1 12 -13 0 -9 55 6 73 11 13 11 17 0 24 -7 4 -14 18 -14 30
-1 13 3 20 7 17 5 -3 7 -10 4 -15 -4 -5 -2 -9 4 -9 19 0 21 19 3 32 -12 9 -18
26 -18 55 0 39 2 41 21 31 20 -11 20 -11 1 11 -25 28 -25 32 -28 506 -4 500 8
466 -189 571 -143 77 -247 154 -343 255 -222 233 -338 521 -340 839 0 173 16
277 66 419 128 365 416 647 784 770 86 29 242 61 294 61 l25 0 -3 -203 c-5
-220 -1 -241 51 -303 79 -94 236 -97 323 -6 46 48 56 87 60 232 6 228 21 317
78 463 142 361 463 618 850 681 92 15 275 13 356 -4z"/>
<path d="M1707 1958 c2 -5 8 -6 13 -3 5 3 13 -3 19 -12 6 -10 11 -13 11 -7 0
6 7 11 14 11 8 0 15 -3 14 -6 -2 -20 3 -31 12 -26 7 4 6 13 -1 26 -9 19 -9 19
10 10 11 -6 23 -16 26 -21 4 -6 11 -7 17 -4 6 4 5 10 -3 15 -10 6 -7 9 11 8
14 -1 35 2 48 5 14 3 20 1 16 -6 -4 -6 1 -8 15 -3 22 7 29 -9 9 -21 -7 -5 -8
-2 -3 7 5 8 4 10 0 6 -5 -4 -10 -13 -11 -20 -1 -7 -5 -21 -9 -32 -5 -16 -4
-15 7 3 8 12 18 19 22 15 4 -4 6 -3 5 2 -7 23 20 52 48 50 15 -1 27 -7 26 -13
-3 -13 13 -16 21 -4 12 19 -15 28 -89 28 -44 0 -83 -5 -87 -11 -5 -7 -8 -7 -8
0 0 6 -9 11 -19 11 -11 0 -17 -4 -15 -8 3 -4 0 -8 -5 -8 -6 0 -11 3 -11 8 0 4
-24 7 -54 7 -30 0 -52 -3 -49 -7z"/>
<path d="M2050 1960 c0 -9 51 -32 58 -25 3 3 2 5 -3 5 -4 0 -2 6 4 13 8 10 7
14 -4 14 -8 0 -15 -4 -15 -9 0 -4 -5 -8 -11 -8 -5 0 -8 4 -5 8 3 5 -1 9 -9 9
-8 0 -15 -3 -15 -7z"/>
<path d="M2122 1955 c-7 -8 -9 -15 -5 -15 4 0 2 -5 -3 -10 -7 -7 -19 -8 -37
-1 -29 11 -52 -5 -38 -28 7 -10 9 -9 14 3 4 9 14 13 27 11 11 -3 29 -7 40 -9
13 -3 18 -1 14 6 -4 6 -3 8 3 5 6 -4 16 0 23 8 14 17 7 19 -20 5 -16 -8 -18
-8 -14 5 3 8 10 12 15 9 5 -3 6 2 3 10 -7 19 -6 19 -22 1z"/>
<path d="M2150 1961 c0 -5 7 -12 16 -15 13 -5 11 -11 -12 -41 -25 -33 -23 -41
9 -36 4 0 7 -4 7 -10 0 -8 5 -8 15 1 8 7 15 17 15 22 0 6 -7 5 -15 -2 -12 -10
-15 -10 -15 1 0 11 -3 11 -11 -1 -9 -13 -10 -13 -6 0 2 8 12 13 22 12 16 -3
17 -1 6 12 -13 16 -12 17 11 20 6 0 13 7 16 15 3 8 0 11 -6 7 -6 -3 -17 1 -25
9 -18 17 -27 19 -27 6z"/>
<path d="M2187 1958 c2 -5 8 -6 13 -3 5 3 12 1 15 -5 9 -14 -14 -41 -29 -34
-6 3 -1 -3 11 -14 l22 -19 -22 -21 c-20 -18 -26 -20 -47 -9 -14 7 -24 20 -22
28 1 9 -4 16 -12 16 -9 0 -13 -8 -9 -21 2 -12 5 -26 5 -33 1 -7 5 -10 10 -7 4
3 5 -3 2 -13 -6 -16 -4 -15 10 2 10 11 14 13 10 5 -7 -13 -5 -13 8 -2 13 10
17 10 21 -3 4 -8 13 -12 22 -9 8 3 12 10 9 15 -3 5 -10 6 -16 3 -7 -5 -8 -2
-3 5 5 9 10 10 18 2 18 -18 25 -13 23 14 -2 14 1 22 7 18 10 -6 27 14 27 32
-1 6 -5 2 -11 -8 -13 -23 -27 -14 -24 15 4 34 4 35 19 35 8 0 15 -3 14 -6 -2
-20 3 -31 12 -26 7 4 6 13 -1 26 -9 19 -9 19 10 10 11 -6 23 -16 26 -21 4 -6
11 -7 17 -4 6 4 5 10 -3 15 -10 6 -7 9 11 8 14 -1 35 2 48 5 14 3 20 1 16 -6
-4 -6 1 -8 15 -3 22 7 29 -9 9 -21 -7 -5 -8 -2 -3 7 5 8 4 11 0 6 -5 -4 -10
-17 -12 -30 -3 -18 1 -15 22 13 19 25 33 35 53 35 16 -1 26 -6 25 -13 -3 -13
13 -16 21 -4 12 19 -15 28 -89 28 -44 0 -83 -5 -87 -11 -5 -7 -8 -7 -8 0 0 6
-9 11 -19 11 -11 0 -17 -4 -15 -8 3 -4 0 -8 -5 -8 -6 0 -11 3 -11 8 0 4 -24 7
-54 7 -30 0 -52 -3 -49 -7z"/>
<path d="M2530 1960 c0 -9 51 -32 58 -25 3 3 2 5 -3 5 -4 0 -2 6 4 13 8 10 7
14 -4 14 -8 0 -15 -4 -15 -9 0 -4 -5 -8 -11 -8 -5 0 -8 4 -5 8 3 5 -1 9 -9 9
-8 0 -15 -3 -15 -7z"/>
<path d="M2602 1955 c-7 -8 -9 -15 -5 -15 4 0 2 -5 -3 -10 -7 -7 -19 -8 -37
-1 -29 11 -52 -5 -38 -28 7 -10 9 -9 14 3 4 9 14 13 27 11 32 -6 39 -14 34
-39 -3 -17 0 -24 11 -22 17 3 33 16 18 16 -6 0 -13 9 -16 20 -3 13 -1 18 5 13
7 -4 8 -1 3 7 -5 8 -4 11 2 7 6 -4 16 0 23 8 14 17 7 19 -20 5 -16 -8 -18 -8
-14 5 3 8 10 12 15 9 5 -3 6 2 3 10 -7 19 -6 19 -22 1z"/>
<path d="M2630 1961 c0 -5 7 -12 16 -15 13 -5 13 -9 -5 -33 l-21 -26 20 -19
c11 -11 18 -23 15 -29 -4 -5 -2 -9 4 -9 19 0 19 15 1 37 -9 12 -21 19 -25 15
-5 -4 -5 -1 -1 6 6 9 12 9 29 1 22 -12 22 -12 3 10 -11 11 -16 22 -13 22 4 1
12 2 19 3 6 0 13 7 16 15 3 8 0 11 -6 7 -6 -3 -17 1 -25 9 -18 17 -27 19 -27
6z"/>
<path d="M2667 1958 c2 -5 8 -6 13 -3 5 3 12 1 15 -5 9 -15 -14 -41 -29 -33
-6 4 -5 -1 3 -10 16 -20 35 -18 37 4 2 31 5 36 18 36 8 0 15 -3 14 -6 -2 -20
3 -31 12 -26 7 4 6 13 -1 26 -9 19 -9 19 10 10 11 -6 23 -16 26 -21 4 -6 11
-7 17 -4 6 4 5 10 -3 15 -10 6 -7 9 11 8 14 -1 35 2 48 5 14 3 20 1 16 -6 -4
-6 1 -8 15 -3 22 7 29 -9 9 -21 -7 -5 -8 -2 -3 7 5 8 4 11 0 6 -5 -4 -10 -17
-12 -30 -3 -18 1 -15 22 13 19 25 33 35 53 35 16 -1 26 -6 25 -13 -3 -13 13
-16 21 -4 12 19 -15 28 -89 28 -44 0 -83 -5 -87 -11 -5 -7 -8 -7 -8 0 0 6 -9
11 -19 11 -11 0 -17 -4 -15 -8 3 -4 0 -8 -5 -8 -6 0 -11 3 -11 8 0 4 -24 7
-54 7 -30 0 -52 -3 -49 -7z"/>
<path d="M3010 1960 c0 -9 51 -32 58 -25 3 3 2 5 -3 5 -4 0 -2 6 4 13 8 10 7
14 -4 14 -8 0 -15 -4 -15 -9 0 -4 -5 -8 -11 -8 -5 0 -8 4 -5 8 3 5 -1 9 -9 9
-8 0 -15 -3 -15 -7z"/>
<path d="M3082 1955 c-7 -8 -9 -15 -5 -15 4 0 2 -5 -3 -10 -7 -7 -19 -8 -37
-1 -29 11 -52 -5 -38 -28 7 -10 9 -9 14 3 4 9 14 13 27 11 11 -3 29 -7 40 -9
13 -3 18 -1 14 6 -4 6 -3 8 3 5 6 -4 16 0 23 8 14 17 7 19 -20 5 -16 -8 -18
-8 -14 5 3 8 10 12 15 9 5 -3 6 2 3 10 -7 19 -6 19 -22 1z"/>
<path d="M3110 1961 c0 -5 7 -12 15 -15 14 -5 13 -10 -6 -36 -13 -16 -25 -26
-28 -21 -3 4 -14 7 -23 5 -10 -1 -18 1 -18 5 0 4 -7 8 -15 8 -10 0 -12 -4 -5
-12 7 -8 4 -11 -11 -10 -20 1 -52 42 -43 56 2 4 -6 6 -19 5 -32 -2 -58 -35
-44 -57 15 -24 30 -13 16 12 -9 18 -8 19 8 11 10 -6 26 -20 36 -32 15 -18 21
-20 34 -8 10 7 14 8 10 1 -4 -6 -4 -19 -1 -28 5 -13 9 -14 15 -4 4 8 11 10 16
6 4 -5 1 -12 -7 -17 -8 -6 -13 -10 -10 -11 3 0 13 -2 22 -4 11 -2 16 3 15 16
-1 20 -22 32 -40 23 -7 -3 -1 3 13 14 27 23 42 20 33 -6 -6 -15 -5 -16 13 -2
10 8 23 21 27 28 6 9 13 10 30 1 22 -12 22 -12 3 10 -11 11 -16 22 -13 22 4 1
12 2 19 3 6 0 13 7 16 15 3 8 0 11 -6 7 -6 -3 -17 1 -25 9 -18 17 -27 19 -27
6z m-137 -45 c4 -10 1 -13 -9 -9 -15 6 -19 23 -5 23 5 0 11 -7 14 -14z"/>
<path d="M3147 1958 c2 -5 8 -6 13 -3 5 3 12 1 15 -5 9 -14 -14 -41 -29 -34
-6 3 0 -4 13 -15 13 -12 22 -22 20 -22 -20 -7 -49 -4 -49 5 -1 6 -7 0 -15 -14
-8 -14 -14 -21 -15 -16 0 5 -7 3 -15 -4 -11 -9 -13 -16 -5 -24 5 -5 10 -17 9
-25 0 -12 -2 -13 -6 -2 -5 11 -7 11 -14 0 -7 -11 -9 -11 -9 -1 0 7 -4 11 -9 8
-5 -3 -14 1 -21 9 -7 8 -17 15 -23 15 -6 0 -7 -3 -4 -7 4 -3 2 -12 -4 -20 -14
-17 2 -17 20 0 11 10 12 9 6 -3 -5 -8 -5 -12 0 -8 13 12 34 -11 29 -30 -3 -9
2 -6 10 8 8 14 15 21 16 16 0 -4 11 -1 24 8 15 9 26 12 30 5 2 -5 3 -4 2 3 -2
7 -10 13 -19 13 -8 0 -19 4 -24 9 -5 5 -2 6 6 1 10 -6 12 -4 6 5 -6 9 -4 11 5
5 9 -6 11 -4 5 5 -5 9 -4 11 3 6 8 -5 10 -1 6 11 -3 11 -2 14 3 8 10 -13 23
-13 43 0 12 7 13 6 3 -7 -7 -8 -10 -18 -6 -21 13 -14 21 -6 19 18 -2 16 1 22
8 18 8 -5 8 -3 0 8 -9 13 -10 21 -6 55 2 11 31 16 30 5 -2 -20 3 -31 12 -26 7
4 6 13 -1 26 -9 19 -9 19 10 10 11 -6 23 -16 26 -21 4 -6 11 -7 17 -4 6 4 5
10 -3 15 -10 6 -7 9 11 8 14 -1 35 2 48 5 14 3 20 1 16 -6 -4 -6 1 -8 15 -3
22 7 29 -9 9 -21 -7 -5 -8 -2 -3 7 5 8 4 11 0 6 -5 -4 -10 -17 -12 -30 -3 -18
1 -15 22 13 19 25 33 35 53 35 16 -1 26 -6 25 -13 -3 -13 13 -16 21 -4 12 19
-15 28 -89 28 -44 0 -83 -5 -87 -11 -5 -7 -8 -7 -8 0 0 6 -9 11 -19 11 -11 0
-17 -4 -15 -8 3 -4 0 -8 -5 -8 -6 0 -11 3 -11 8 0 4 -24 7 -54 7 -30 0 -52 -3
-49 -7z"/>
<path d="M3490 1960 c0 -9 51 -32 58 -25 3 3 2 5 -3 5 -4 0 -2 6 4 13 8 10 7
14 -4 14 -8 0 -15 -4 -15 -9 0 -4 -5 -8 -11 -8 -5 0 -8 4 -5 8 3 5 -1 9 -9 9
-8 0 -15 -3 -15 -7z"/>
<path d="M3562 1955 c-7 -8 -9 -15 -5 -15 4 0 2 -5 -3 -10 -7 -7 -19 -8 -37
-1 -29 11 -52 -5 -38 -28 7 -10 9 -9 14 3 4 9 14 13 27 11 31 -6 40 -14 33
-30 -3 -8 0 -15 7 -15 7 0 10 8 7 20 -3 13 -1 18 5 13 7 -4 8 -1 3 7 -5 8 -4
11 2 7 6 -4 16 0 23 8 14 17 7 19 -20 5 -16 -8 -18 -8 -14 5 3 8 10 12 15 9 5
-3 6 2 3 10 -7 19 -6 19 -22 1z"/>
<path d="M3590 1961 c0 -5 7 -12 16 -15 15 -6 15 -8 2 -24 -8 -9 -18 -22 -22
-29 -8 -15 10 -27 20 -12 5 8 3 9 -6 4 -8 -5 -11 -4 -6 3 4 6 14 8 24 5 15 -6
15 -5 3 10 -13 17 -12 18 11 21 6 0 13 7 16 15 3 8 0 11 -6 7 -6 -3 -17 1 -25
9 -18 17 -27 19 -27 6z"/>
<path d="M3627 1958 c2 -5 8 -6 13 -3 5 3 12 1 15 -5 9 -15 -14 -41 -29 -33
-7 5 -7 2 1 -8 8 -9 9 -20 3 -29 -6 -8 -10 -11 -10 -6 0 5 -6 3 -13 -3 -8 -6
-17 -8 -20 -4 -4 3 -13 1 -21 -6 -11 -9 -15 -8 -20 5 -3 9 -3 21 1 26 3 7 1 8
-5 4 -7 -4 -12 -3 -12 2 0 5 -7 9 -16 9 -12 0 -11 -4 5 -20 18 -18 18 -22 4
-43 -8 -13 -18 -22 -22 -19 -4 2 -8 -9 -8 -24 0 -33 30 -37 35 -5 3 16 1 17
-7 4 -17 -24 -12 -2 5 25 10 15 23 22 35 20 13 -3 17 0 12 8 -4 7 0 7 10 -2
14 -11 18 -11 23 4 5 13 9 14 15 3 7 -10 9 -10 9 0 0 6 5 12 11 12 8 0 9 -4 0
-13 -6 -8 -8 -17 -4 -20 3 -4 12 5 20 20 7 14 11 28 8 31 -3 3 -5 0 -5 -7 0
-7 -5 -9 -11 -5 -8 4 -7 9 2 15 8 4 14 14 15 21 2 30 5 35 18 35 8 0 15 -3 14
-6 -2 -20 3 -31 12 -26 7 4 6 13 -1 26 -9 19 -9 19 10 10 11 -6 23 -16 26 -21
4 -6 11 -7 17 -4 6 4 5 10 -3 15 -10 6 -7 9 11 8 14 -1 35 2 48 5 14 3 20 1
16 -6 -4 -6 1 -8 15 -3 22 7 29 -9 9 -21 -7 -5 -8 -2 -3 7 5 8 4 11 0 6 -5 -4
-10 -17 -12 -30 -3 -18 1 -15 22 13 19 25 33 35 53 35 16 -1 26 -6 25 -13 -3
-13 13 -16 21 -4 12 19 -15 28 -89 28 -44 0 -83 -5 -87 -11 -5 -7 -8 -7 -8 0
0 6 -9 11 -19 11 -11 0 -17 -4 -15 -8 3 -4 0 -8 -5 -8 -6 0 -11 3 -11 8 0 4
-24 7 -54 7 -30 0 -52 -3 -49 -7z"/>
<path d="M3970 1960 c0 -9 51 -32 58 -25 3 3 2 5 -3 5 -4 0 -2 6 4 13 8 10 7
14 -4 14 -8 0 -15 -4 -15 -9 0 -4 -5 -8 -11 -8 -5 0 -8 4 -5 8 3 5 -1 9 -9 9
-8 0 -15 -3 -15 -7z"/>
<path d="M4042 1955 c-7 -8 -9 -15 -5 -15 4 0 2 -5 -3 -10 -7 -7 -19 -8 -37
-1 -30 12 -39 3 -43 -39 l-3 -25 14 25 c7 14 19 25 27 26 21 1 49 -16 43 -26
-3 -5 0 -12 6 -16 9 -5 10 0 7 14 -4 14 -2 20 4 15 7 -4 8 -1 3 7 -5 8 -4 11
2 7 6 -4 16 0 23 8 14 17 7 19 -20 5 -16 -8 -18 -8 -14 5 3 8 10 12 15 9 5 -3
6 2 3 10 -7 19 -6 19 -22 1z"/>
<path d="M4070 1961 c0 -5 7 -12 16 -15 15 -6 15 -8 2 -24 -8 -9 -18 -22 -22
-29 -8 -15 10 -27 20 -12 5 8 3 9 -6 4 -8 -5 -11 -4 -6 3 4 6 14 8 24 5 15 -6
15 -5 3 10 -13 17 -12 18 11 21 6 0 13 7 16 15 3 8 0 11 -6 7 -6 -3 -17 1 -25
9 -18 17 -27 19 -27 6z"/>
<path d="M4107 1958 c2 -5 8 -6 13 -3 5 3 12 1 15 -5 9 -15 -14 -41 -29 -33
-6 4 -5 0 2 -9 11 -14 10 -18 -10 -29 -13 -7 -29 -12 -36 -11 -7 2 -12 -1 -11
-5 3 -19 -2 -33 -12 -33 -8 0 -8 4 0 14 9 10 8 16 -4 26 -8 7 -12 17 -8 23 3
6 1 7 -5 3 -7 -4 -12 -3 -12 2 0 5 -7 9 -15 9 -8 0 -12 -4 -9 -9 3 -4 0 -8 -6
-8 -6 0 -8 -4 -5 -10 3 -5 2 -10 -4 -10 -5 0 -8 -7 -7 -15 3 -19 16 -32 17
-17 1 7 3 17 4 22 1 6 3 15 4 21 0 5 6 7 12 3 8 -4 7 -9 -2 -16 -10 -6 -7 -7
9 -3 20 6 23 4 18 -12 -3 -10 -2 -22 2 -28 9 -12 43 -19 41 -8 -4 21 2 34 12
27 8 -4 7 -9 -2 -15 -8 -5 -9 -9 -4 -9 20 0 38 17 26 24 -14 9 -14 26 0 26 5
0 8 -4 5 -8 -3 -5 1 -9 9 -9 7 0 12 8 10 18 -2 10 3 20 11 23 9 3 13 10 10 15
-9 14 3 38 19 38 8 0 14 -3 13 -6 -2 -20 3 -31 12 -26 7 4 6 13 -1 26 -9 19
-9 19 10 10 11 -6 23 -16 26 -21 4 -6 11 -7 17 -4 6 4 5 10 -3 15 -10 6 -7 9
11 8 14 -1 35 2 48 5 14 3 20 1 16 -6 -4 -6 1 -8 15 -3 22 7 29 -9 9 -21 -7
-5 -8 -2 -3 7 5 8 4 11 0 6 -5 -4 -10 -17 -12 -30 -3 -18 1 -15 22 13 19 25
33 35 53 35 16 -1 26 -6 25 -13 -3 -13 13 -16 21 -4 12 19 -15 28 -89 28 -44
0 -83 -5 -87 -11 -5 -7 -8 -7 -8 0 0 6 -9 11 -19 11 -11 0 -17 -4 -15 -8 3 -4
0 -8 -5 -8 -6 0 -11 3 -11 8 0 4 -24 7 -54 7 -30 0 -52 -3 -49 -7z"/>
<path d="M4450 1960 c0 -9 51 -32 58 -25 3 3 2 5 -3 5 -4 0 -2 6 4 13 8 10 7
14 -4 14 -8 0 -15 -4 -15 -9 0 -4 -5 -8 -11 -8 -5 0 -8 4 -5 8 3 5 -1 9 -9 9
-8 0 -15 -3 -15 -7z"/>
<path d="M4522 1955 c-7 -8 -9 -15 -5 -15 4 0 2 -5 -3 -10 -7 -7 -19 -8 -37
-1 -29 11 -52 -5 -38 -28 7 -10 9 -9 14 3 4 9 14 13 27 11 32 -6 39 -14 34
-39 -3 -17 0 -24 11 -22 17 3 33 16 18 16 -6 0 -13 9 -16 20 -3 13 -1 18 5 13
7 -4 8 -1 3 7 -5 8 -4 11 2 7 6 -4 16 0 23 8 14 17 7 19 -20 5 -16 -8 -18 -8
-14 5 3 8 10 12 15 9 5 -3 6 2 3 10 -7 19 -6 19 -22 1z"/>
<path d="M4550 1961 c0 -5 7 -12 16 -15 13 -5 13 -9 -5 -33 l-21 -26 20 -19
c11 -11 18 -23 15 -29 -4 -5 -2 -9 4 -9 19 0 19 15 1 37 -9 12 -21 19 -25 15
-5 -4 -5 -1 -1 6 6 9 12 9 29 1 22 -12 22 -12 3 10 -11 11 -16 22 -13 22 4 1
12 2 19 3 6 0 13 7 16 15 3 8 0 11 -6 7 -6 -3 -17 1 -25 9 -18 17 -27 19 -27
6z"/>
<path d="M4587 1958 c2 -5 8 -6 13 -3 5 3 12 1 15 -5 9 -15 -14 -41 -29 -33
-6 4 -5 -1 3 -10 16 -20 35 -18 37 4 2 31 5 36 18 36 8 0 15 -3 14 -6 -2 -20
3 -31 12 -26 7 4 6 13 -1 26 -9 19 -9 19 10 10 11 -6 23 -16 26 -21 4 -6 11
-7 17 -4 6 4 5 10 -3 15 -10 6 -7 9 11 8 14 -1 35 2 48 5 14 3 20 1 16 -6 -4
-6 1 -8 15 -3 22 7 29 -9 9 -21 -7 -5 -8 -2 -3 7 5 8 4 11 0 6 -5 -4 -10 -17
-12 -30 -3 -18 1 -15 22 13 19 25 33 35 53 35 16 -1 26 -6 25 -13 -3 -13 13
-16 21 -4 12 19 -15 28 -89 28 -44 0 -83 -5 -87 -11 -5 -7 -8 -7 -8 0 0 6 -9
11 -19 11 -11 0 -17 -4 -15 -8 3 -4 0 -8 -5 -8 -6 0 -11 3 -11 8 0 4 -24 7
-54 7 -30 0 -52 -3 -49 -7z"/>
<path d="M4930 1960 c0 -9 51 -32 58 -25 3 3 2 5 -3 5 -4 0 -2 6 4 13 8 10 7
14 -4 14 -8 0 -15 -4 -15 -9 0 -4 -5 -8 -11 -8 -5 0 -8 4 -5 8 3 5 -1 9 -9 9
-8 0 -15 -3 -15 -7z"/>
<path d="M5002 1955 c-7 -8 -9 -15 -5 -15 4 0 2 -5 -3 -10 -7 -7 -19 -8 -37
-1 -29 11 -52 -5 -38 -28 7 -10 9 -9 14 3 4 9 14 13 27 11 11 -3 29 -7 40 -9
13 -3 18 -1 14 6 -4 6 -3 8 3 5 6 -4 16 0 23 8 14 17 7 19 -20 5 -16 -8 -18
-8 -14 5 3 8 10 12 15 9 5 -3 6 2 3 10 -7 19 -6 19 -22 1z"/>
<path d="M5030 1961 c0 -5 7 -12 15 -15 14 -5 13 -10 -6 -36 -13 -16 -25 -26
-28 -21 -3 4 -14 7 -23 5 -10 -1 -18 1 -18 5 0 4 -7 8 -15 8 -10 0 -12 -4 -5
-12 7 -8 4 -11 -11 -10 -20 1 -52 42 -43 56 2 4 -6 6 -19 5 -32 -2 -58 -35
-44 -57 15 -24 30 -13 16 12 -9 18 -8 19 8 11 10 -6 26 -20 36 -32 15 -18 21
-20 34 -8 10 7 14 8 10 1 -4 -6 -4 -19 -1 -28 5 -13 9 -14 15 -4 4 8 11 10 16
6 4 -5 1 -12 -7 -17 -8 -6 -13 -10 -10 -11 3 0 13 -2 22 -4 11 -2 16 3 15 16
-1 20 -22 32 -40 23 -7 -3 -1 3 13 14 27 23 42 20 33 -6 -6 -15 -5 -16 13 -2
10 8 23 21 27 28 6 9 13 10 30 1 22 -12 22 -12 3 10 -11 11 -16 22 -13 22 4 1
12 2 19 3 6 0 13 7 16 15 3 8 0 11 -6 7 -6 -3 -17 1 -25 9 -18 17 -27 19 -27
6z m-137 -45 c4 -10 1 -13 -9 -9 -15 6 -19 23 -5 23 5 0 11 -7 14 -14z"/>
<path d="M5067 1958 c2 -5 8 -6 13 -3 5 3 12 1 15 -5 9 -14 -14 -42 -28 -33
-6 3 -7 1 -3 -5 4 -7 16 -16 26 -22 17 -9 18 -7 14 18 -3 21 -2 24 6 12 9 -12
10 -10 5 8 -6 22 8 31 20 12 10 -16 21 -12 22 8 1 14 -7 17 -47 17 -27 0 -46
-3 -43 -7z"/>
<path d="M5169 1958 c-3 -19 -5 -24 -11 -33 -4 -6 -3 -17 1 -24 6 -10 9 -9 14
3 4 9 14 13 27 11 11 -3 29 -7 40 -9 14 -4 18 -1 14 7 -4 7 -4 9 1 5 4 -4 14
-3 22 3 9 9 13 8 13 0 0 -6 -4 -11 -10 -11 -18 0 -10 -16 9 -17 20 -2 23 19 4
38 -8 8 -17 8 -30 0 -22 -11 -45 3 -37 23 3 8 -6 12 -26 12 -16 0 -31 -3 -31
-8z m31 -8 c-8 -5 -10 -10 -4 -10 5 0 19 -7 30 -15 18 -14 17 -14 -8 -4 -22
10 -31 9 -45 -2 -16 -13 -17 -12 -4 4 7 9 10 17 5 17 -12 0 19 20 31 20 6 0 3
-5 -5 -10z"/>
<path d="M1693 1934 c0 -19 33 -48 46 -40 15 10 -7 52 -28 53 -10 1 -18 -5
-18 -13z m34 -21 c0 -9 -4 -10 -14 -2 -7 6 -13 12 -13 14 0 1 6 2 13 2 8 0 14
-6 14 -14z"/>
<path d="M1864 1931 c-27 -17 -34 -17 -48 -5 -9 8 -14 11 -11 8 3 -4 0 -13 -6
-20 -19 -23 0 -37 27 -19 16 10 24 11 24 4 0 -8 4 -8 15 1 8 7 13 16 10 20 -3
5 1 7 7 6 15 -2 23 -21 9 -21 -17 0 -22 -13 -7 -18 22 -9 39 25 23 47 -11 15
-15 14 -43 -3z m-40 -19 c3 -5 -1 -9 -9 -9 -8 0 -12 4 -9 9 3 4 7 8 9 8 2 0 6
-4 9 -8z"/>
<path d="M1964 1931 c-4 -9 -8 -20 -8 -24 -1 -4 -8 -12 -16 -17 -8 -5 -10 -10
-5 -10 6 0 2 -5 -8 -11 -14 -8 -16 -14 -6 -25 9 -11 9 -14 -1 -14 -8 0 -11 -2
-8 -5 3 -3 13 -3 22 1 11 4 13 10 7 18 -6 7 -4 18 5 30 8 11 14 14 14 7 0 -7
5 -9 10 -6 7 4 6 13 -1 26 -10 19 -9 20 11 9 12 -6 24 -18 27 -26 3 -8 14 -12
28 -10 19 4 23 1 18 -12 -5 -14 -3 -15 8 -4 7 6 17 12 23 12 5 0 1 -6 -10 -14
-10 -8 -16 -18 -11 -22 4 -4 7 -2 7 4 0 17 17 15 23 -2 4 -11 1 -13 -11 -9
-15 6 -15 5 -3 -11 13 -15 13 -19 1 -26 -8 -5 -18 -6 -23 -3 -5 3 -7 0 -5 -8
3 -8 12 -12 19 -10 8 2 20 4 27 4 8 0 10 8 6 21 -4 17 -3 18 6 6 10 -12 11
-12 5 5 -4 11 -8 26 -8 33 0 6 -3 12 -7 12 -4 0 -7 8 -7 18 0 32 -3 39 -18 39
-10 0 -12 -4 -5 -12 7 -8 4 -11 -11 -10 -20 1 -52 42 -44 55 2 3 -7 6 -20 6
-14 0 -28 -7 -31 -15z m49 -15 c4 -10 1 -13 -9 -9 -15 6 -19 23 -5 23 5 0 11
-7 14 -14z"/>
<path d="M2343 1931 c-28 -18 -32 -18 -47 -3 -10 10 -16 13 -15 7 2 -5 -2 -20
-9 -32 -9 -16 -9 -24 0 -29 7 -5 8 -3 3 7 -5 8 -4 11 0 6 5 -4 19 0 32 8 15
10 23 12 23 4 0 -8 4 -8 15 1 8 7 13 16 10 20 -3 5 1 7 7 6 15 -2 23 -21 9
-21 -5 0 -13 -3 -17 -7 -7 -7 9 -12 29 -9 4 0 7 -3 7 -8 0 -6 9 -9 20 -8 11 1
20 5 20 10 0 4 5 5 11 1 8 -4 7 -9 -2 -15 -8 -5 -12 -9 -9 -10 3 0 13 -2 23
-4 21 -4 21 -2 1 36 -15 30 -15 30 6 19 12 -6 24 -18 27 -26 3 -8 9 -14 15
-14 5 0 6 5 2 12 -4 7 -3 8 5 4 6 -4 9 -11 6 -16 -3 -5 -2 -11 3 -14 4 -2 14
5 21 16 11 18 11 20 -3 15 -11 -4 -21 3 -31 22 -8 16 -12 31 -9 33 3 3 -6 5
-18 4 -22 -1 -55 -33 -50 -48 1 -5 -2 -8 -8 -8 -5 0 -13 0 -17 0 -5 0 -9 9 -9
21 -2 34 -17 40 -51 20z m150 -15 c4 -10 1 -13 -9 -9 -7 3 -14 9 -14 14 0 14
17 10 23 -5z m-189 -4 c3 -5 -1 -9 -9 -9 -8 0 -12 4 -9 9 3 4 7 8 9 8 2 0 6
-4 9 -8z"/>
<path d="M2823 1931 c-28 -18 -32 -18 -48 -3 -10 10 -15 12 -11 5 3 -6 2 -14
-3 -17 -10 -7 -9 -52 2 -63 6 -6 11 11 8 30 0 4 4 7 10 7 5 0 7 5 4 10 -10 16
18 7 33 -10 8 -8 11 -10 8 -3 -4 6 -2 14 4 18 6 4 8 10 5 15 -3 4 1 7 7 6 15
-2 23 -21 9 -21 -5 0 -13 -3 -17 -7 -6 -7 3 -10 22 -7 4 0 11 -5 15 -13 5 -8
7 0 4 21 -6 47 -16 53 -52 32z"/>
<path d="M3303 1931 c-26 -17 -33 -17 -47 -5 -9 8 -14 11 -11 8 3 -4 0 -13 -6
-20 -19 -23 0 -37 27 -19 16 10 24 11 24 4 0 -8 4 -8 15 1 8 7 13 16 10 20 -3
5 1 7 7 6 15 -2 23 -21 9 -21 -5 0 -13 -3 -17 -7 -7 -7 9 -12 29 -9 4 0 7 -3
7 -8 0 -6 9 -9 20 -8 11 1 20 5 20 10 0 4 -8 7 -17 5 -12 -2 -18 4 -19 20 -2
37 -16 43 -51 23z m-39 -19 c3 -5 -1 -9 -9 -9 -8 0 -12 4 -9 9 3 4 7 8 9 8 2
0 6 -4 9 -8z"/>
<path d="M3397 1924 c-11 -15 -13 -24 -5 -32 11 -11 1 -35 -12 -27 -9 6 -21
-20 -13 -29 11 -10 23 -6 21 7 -2 6 3 11 10 9 9 -1 11 2 6 10 -6 9 -3 9 9 -1
21 -17 21 -9 1 32 l-17 31 24 -15 c12 -9 25 -22 27 -30 3 -11 1 -11 -7 1 -6 8
-11 10 -11 4 0 -16 10 -23 26 -17 8 3 11 10 7 17 -3 6 -2 7 2 3 13 -11 15 -38
3 -31 -6 4 -8 2 -5 -4 5 -6 0 -8 -13 -5 -12 3 -20 0 -20 -7 0 -7 7 -10 15 -6
22 8 39 -29 25 -54 -6 -11 -15 -18 -20 -15 -5 3 -11 1 -15 -5 -5 -8 14 -15 37
-11 3 0 5 -11 3 -25 -3 -28 10 -41 19 -18 3 8 1 25 -5 36 -8 15 -8 19 0 14 6
-4 20 -9 30 -11 15 -3 19 1 15 13 -3 9 1 7 8 -6 8 -12 17 -20 21 -16 4 4 2 13
-4 21 -9 9 -8 13 0 13 10 0 15 -14 12 -33 -2 -13 33 -3 46 13 12 15 1 30 -22
30 -5 0 -4 -4 4 -9 9 -6 10 -11 2 -15 -10 -7 -16 6 -12 27 1 4 -6 7 -15 5 -9
-2 -19 4 -21 12 -4 13 -3 13 6 0 8 -11 11 -12 11 -2 0 8 5 10 12 6 8 -5 9 -2
5 10 -5 13 -3 15 11 8 9 -5 27 -8 40 -7 13 1 25 -2 28 -7 6 -10 24 -1 24 12 0
5 -13 7 -29 5 -20 -3 -31 1 -35 12 -4 10 -10 12 -19 6 -6 -6 -24 -9 -39 -8
-20 1 -25 -2 -20 -13 4 -11 1 -13 -7 -7 -10 6 -11 3 -2 -13 13 -25 14 -35 2
-27 -6 3 -14 -3 -20 -12 -6 -10 -11 -12 -11 -5 0 6 -5 11 -12 10 -8 -2 -12 12
-13 40 -1 23 2 42 7 42 4 0 8 -5 8 -12 0 -6 6 -3 14 8 16 22 2 49 -21 40 -12
-5 -47 46 -38 56 2 2 -6 4 -18 4 -13 0 -31 -10 -40 -22z m56 -8 c4 -10 1 -13
-9 -9 -15 6 -19 23 -5 23 5 0 11 -7 14 -14z m61 -57 c-3 -5 -10 -7 -15 -3 -5
3 -7 10 -3 15 3 5 10 7 15 3 5 -3 7 -10 3 -15z"/>
<path d="M3783 1931 c-26 -17 -33 -17 -47 -5 -9 8 -14 11 -11 8 3 -4 0 -13 -6
-20 -7 -9 -6 -21 6 -43 8 -17 12 -31 8 -31 -5 0 0 -5 10 -11 19 -11 37 -4 37
14 0 7 -4 6 -10 -3 -5 -8 -12 -11 -17 -7 -9 9 17 28 29 21 4 -3 8 0 8 5 0 6 3
10 8 10 20 -3 32 2 26 13 -4 7 -3 8 5 4 6 -4 9 -11 6 -16 -3 -5 -2 -11 3 -14
4 -2 14 4 20 15 11 17 10 20 -5 17 -12 -2 -18 4 -19 20 -2 37 -16 43 -51 23z
m40 -17 c-2 -5 -7 -9 -12 -9 -5 0 -13 -3 -17 -7 -4 -5 -2 -8 4 -8 22 0 12 -16
-10 -17 -13 0 -29 -2 -37 -4 -7 -2 -16 2 -18 10 -4 10 1 11 18 6 23 -7 23 -7
4 8 -11 8 -24 13 -29 10 -5 -4 -6 -1 -1 6 5 9 10 10 18 2 7 -7 14 -7 24 1 11
9 12 7 6 -8 -6 -17 -5 -17 10 -5 9 7 15 17 12 21 -3 5 3 7 12 6 10 -2 17 -7
16 -12z"/>
<path d="M3877 1924 c-11 -15 -13 -25 -7 -29 8 -5 7 -11 -1 -21 -6 -8 -8 -14
-3 -14 5 0 2 -4 -6 -10 -8 -5 -19 -5 -25 -1 -5 5 -18 5 -28 2 -18 -7 -18 -8
-1 -21 10 -8 15 -10 12 -5 -4 6 8 10 30 10 26 0 36 4 38 18 1 11 5 21 8 24 3
3 1 15 -5 26 -12 21 0 18 33 -10 20 -18 33 -1 19 25 -6 11 -8 21 -6 24 2 2 -6
4 -18 4 -13 0 -31 -10 -40 -22z m56 -8 c4 -10 1 -13 -9 -9 -15 6 -19 23 -5 23
5 0 11 -7 14 -14z"/>
<path d="M4263 1931 c-28 -18 -32 -18 -48 -3 -10 10 -15 12 -11 5 3 -6 2 -15
-4 -18 -6 -4 -8 -16 -5 -28 3 -12 -2 -7 -12 11 -16 31 -33 42 -33 22 0 -5 5
-10 10 -10 6 0 10 -5 10 -11 0 -5 -4 -8 -9 -4 -9 5 -23 -12 -33 -40 -1 -5 -6
-9 -10 -8 -3 1 -5 -3 -4 -10 2 -14 25 -54 26 -47 7 32 7 40 -3 40 -7 0 -5 6 4
13 9 7 15 20 13 29 -2 16 0 16 20 3 13 -8 26 -12 29 -8 4 3 7 0 7 -7 0 -9 6
-8 20 5 23 21 19 35 -5 15 -10 -8 -15 -9 -15 -1 0 6 5 11 11 11 5 0 8 4 5 8
-3 5 1 9 9 9 8 0 15 -5 15 -10 0 -5 7 -4 15 3 8 7 13 16 10 20 -3 5 1 7 7 6
15 -2 23 -21 9 -21 -5 0 -13 -3 -17 -7 -4 -5 -3 -8 3 -8 6 0 13 -8 15 -18 3
-10 13 -19 22 -19 12 0 15 5 10 16 -3 9 -8 27 -9 40 -5 37 -18 42 -52 22z"/>
<path d="M4357 1924 c-11 -14 -13 -24 -6 -31 8 -8 7 -13 -2 -18 -8 -5 -10 -4
-5 3 4 7 2 12 -3 12 -6 0 -10 -10 -8 -21 2 -22 -28 -36 -39 -18 -3 5 -10 6
-16 3 -7 -5 -9 -2 -5 8 3 9 3 19 0 22 -8 8 -53 -34 -53 -48 0 -6 5 -4 11 4 9
13 10 12 5 -2 -3 -10 -3 -18 1 -18 3 0 12 8 20 18 8 9 11 11 7 3 -5 -10 -3
-12 5 -6 10 6 11 3 1 -15 -6 -12 -9 -24 -6 -28 3 -3 6 0 6 8 0 9 3 10 13 1 8
-6 17 -8 20 -4 4 3 -1 12 -11 20 -13 10 -14 13 -2 11 8 -2 20 -9 25 -16 9 -11
14 -11 26 4 12 16 12 17 -3 11 -10 -3 -20 -1 -24 5 -4 6 -3 8 4 4 6 -3 14 -1
18 5 4 8 9 7 15 -2 21 -33 34 38 13 72 -5 8 -1 8 14 0 12 -6 24 -16 27 -21 4
-6 12 -7 18 -4 7 4 8 3 4 -2 -5 -5 -14 -9 -19 -9 -6 0 -13 -5 -15 -12 -5 -14
26 -11 35 4 4 5 15 9 25 7 9 -1 17 2 17 8 0 6 -7 8 -15 4 -10 -3 -20 5 -30 23
-8 16 -12 30 -10 33 2 2 -6 4 -18 4 -13 0 -31 -10 -40 -22z m56 -8 c4 -10 1
-13 -9 -9 -15 6 -19 23 -5 23 5 0 11 -7 14 -14z m-143 -40 c0 -2 -8 -10 -17
-17 -16 -13 -17 -12 -4 4 13 16 21 21 21 13z m100 -16 c0 -5 -4 -10 -10 -10
-5 0 -10 5 -10 10 0 6 5 10 10 10 6 0 10 -4 10 -10z"/>
<path d="M4743 1931 c-28 -18 -32 -18 -48 -3 -10 10 -15 12 -11 5 3 -6 2 -14
-3 -17 -10 -7 -9 -52 2 -63 6 -6 11 11 8 30 0 4 4 7 10 7 5 0 7 5 4 10 -10 16
18 7 33 -10 8 -8 11 -10 8 -3 -4 6 -2 14 4 18 6 4 8 10 5 15 -3 4 1 7 7 6 15
-2 23 -21 9 -21 -5 0 -13 -3 -17 -7 -6 -7 3 -10 22 -7 4 0 11 -5 15 -13 5 -8
7 0 4 21 -6 47 -16 53 -52 32z"/>
<path d="M5125 1930 c4 -6 1 -17 -5 -25 -12 -15 -3 -21 23 -16 5 1 5 -4 1 -10
-4 -8 -3 -9 4 -5 9 5 8 15 -3 37 -9 16 -18 29 -21 29 -3 0 -2 -5 1 -10z"/>
<path d="M1750 1920 c0 -5 5 -10 10 -10 6 0 10 -5 10 -12 0 -6 -3 -8 -7 -5 -3
4 -14 0 -23 -8 -10 -9 -24 -15 -31 -13 -8 2 -14 -6 -15 -19 -1 -13 3 -23 7
-23 5 0 8 -5 7 -11 -2 -6 6 -17 18 -25 18 -12 21 -12 21 0 0 9 -5 12 -10 9 -6
-3 -7 -1 -3 5 5 8 1 10 -11 6 -11 -3 -9 0 5 8 12 8 20 17 16 21 -4 4 -13 2
-21 -4 -9 -9 -13 -8 -13 0 0 10 14 15 34 12 5 -1 6 6 2 16 -4 12 1 9 14 -7 12
-15 18 -18 14 -7 -7 20 6 23 24 5 9 -9 12 -9 12 3 0 9 8 5 20 -11 l20 -25 -4
27 c-3 20 -1 25 10 21 8 -3 12 -13 10 -22 -3 -9 -1 -23 4 -31 5 -8 10 -11 10
-7 0 4 9 3 21 -3 38 -21 64 -21 77 0 8 13 8 20 1 20 -5 0 -7 5 -4 10 3 6 11
10 16 10 6 0 8 -4 5 -9 -4 -5 0 -12 6 -14 9 -4 9 -6 -1 -6 -11 -1 -10 -4 3
-14 16 -12 16 -14 2 -14 -9 0 -16 5 -16 10 0 6 -2 8 -5 5 -12 -11 8 -36 25
-33 14 3 18 -1 15 -16 -3 -13 0 -17 8 -14 7 4 4 0 -6 -8 -11 -9 -14 -18 -8
-21 5 -4 12 -2 16 4 4 6 10 8 14 6 12 -8 6 33 -7 46 -7 7 -12 19 -12 27 0 14
1 14 10 1 9 -13 10 -13 10 0 0 12 2 12 9 1 5 -7 11 -9 14 -4 3 5 -5 21 -18 35
-13 14 -21 29 -17 34 4 4 1 4 -7 -1 -9 -5 -20 0 -33 16 -11 13 -17 19 -14 12
6 -11 -10 -28 -26 -28 -7 0 -10 -8 -7 -17 9 -30 5 -36 -19 -35 -23 2 -27 7
-26 30 1 24 -6 32 -28 28 -5 0 -8 3 -8 7 0 4 -9 8 -20 9 -11 1 -20 -2 -20 -6
0 -19 -34 -5 -49 21 -16 28 -31 37 -31 18z m30 -36 c0 -8 -19 -13 -24 -6 -3 5
1 9 9 9 8 0 15 -2 15 -3z m244 -46 c-3 -4 2 -8 10 -8 24 0 19 -16 -5 -17 -12
-1 -18 1 -15 4 3 4 -1 17 -9 30 -15 23 -15 23 4 11 11 -6 17 -16 15 -20z m-44
16 c0 -8 -19 -13 -24 -6 -3 5 1 9 9 9 8 0 15 -2 15 -3z m-90 -14 c0 -5 -5 -10
-11 -10 -5 0 -7 5 -4 10 3 6 8 10 11 10 2 0 4 -4 4 -10z"/>
<path d="M2230 1920 c0 -5 5 -10 10 -10 6 0 10 5 10 10 0 6 -4 10 -10 10 -5 0
-10 -4 -10 -10z"/>
<path d="M2710 1920 c0 -5 5 -10 10 -10 6 0 10 -5 10 -11 0 -5 -4 -8 -9 -5 -5
3 -14 -1 -21 -10 -7 -8 -20 -12 -29 -9 -13 5 -13 4 -4 -6 16 -16 43 -21 43 -8
0 6 4 8 8 5 4 -2 14 -1 20 3 10 6 10 13 1 34 -12 27 -29 36 -29 17z m25 -39
c-9 -8 -36 -10 -30 -2 2 4 11 8 20 8 8 0 13 -3 10 -6z"/>
<path d="M3190 1920 c0 -5 5 -10 10 -10 6 0 10 -5 10 -11 0 -5 -6 -7 -12 -3
-9 5 -9 2 1 -9 9 -12 10 -21 3 -29 -15 -19 -15 -30 0 -39 25 -16 31 -9 12 13
-10 12 -13 18 -5 13 9 -5 12 -4 7 3 -4 7 1 10 14 7 11 -2 20 2 20 8 0 7 4 6
10 -3 7 -11 10 -11 10 -2 0 7 5 10 10 7 6 -3 10 1 10 9 0 9 -4 16 -10 16 -5 0
-10 -4 -10 -8 0 -20 -34 -6 -49 20 -16 28 -31 37 -31 18z"/>
<path d="M3670 1920 c0 -5 5 -10 10 -10 6 0 10 -5 10 -11 0 -5 -4 -8 -8 -5 -4
2 -8 -3 -8 -12 -1 -9 -3 -24 -5 -32 -2 -8 2 -15 9 -16 6 -1 15 -3 20 -4 4 -1
12 -2 17 -1 6 1 -1 -7 -15 -18 -16 -13 -29 -16 -36 -10 -10 9 -25 -8 -28 -33
-1 -3 -4 -10 -8 -14 -4 -4 -3 -13 4 -21 8 -11 7 -12 -6 -7 -10 4 -16 1 -16 -7
0 -7 3 -9 6 -6 4 3 15 2 26 -4 17 -9 18 -8 9 10 -6 11 -7 22 -3 25 5 3 9 0 10
-7 6 -46 9 -57 17 -64 4 -5 5 -2 0 6 -5 9 -4 12 2 8 5 -3 10 0 10 8 0 8 -4 15
-8 15 -4 0 -6 8 -5 18 2 9 -4 23 -13 30 -14 11 -13 12 9 6 23 -6 24 -5 6 8
-16 13 -16 15 -2 15 9 0 16 -4 16 -8 0 -9 26 -6 36 4 4 4 2 7 -4 7 -7 0 -12 5
-12 11 0 8 4 8 14 0 11 -9 15 -9 19 1 4 10 6 10 6 -1 1 -11 4 -11 16 -1 11 9
15 9 15 1 0 -7 5 -9 10 -6 6 4 7 11 4 17 -4 7 -2 8 5 4 6 -4 9 -11 6 -16 -3
-4 3 -14 12 -21 15 -12 16 -12 10 3 -4 12 0 21 14 29 18 9 19 9 10 -9 -10 -19
-6 -32 11 -32 5 0 7 4 4 8 -7 12 12 38 21 29 4 -5 1 -12 -7 -17 -10 -6 -11
-10 -3 -10 7 0 17 10 24 21 8 15 8 19 0 15 -6 -4 -11 -2 -11 4 0 7 8 9 22 4
20 -6 21 -5 9 10 -8 9 -9 16 -3 16 6 0 12 -5 14 -11 2 -7 8 -6 16 3 9 12 6 19
-18 36 l-29 22 5 -26 c3 -18 1 -23 -7 -18 -7 4 -9 3 -6 -3 7 -12 -16 -36 -26
-27 -3 3 -15 0 -27 -6 -16 -9 -25 -9 -36 1 -9 8 -18 8 -26 2 -16 -12 -48 -13
-49 -1 -8 53 -59 138 -59 98z m44 -82 c-4 -5 -11 -5 -18 1 -7 6 -17 7 -22 3
-4 -4 -2 1 5 11 10 13 17 15 27 6 8 -6 11 -15 8 -21z"/>
<path d="M4630 1920 c0 -5 5 -10 10 -10 6 0 10 -5 10 -11 0 -5 -4 -8 -9 -5 -5
3 -14 -1 -21 -10 -7 -8 -20 -12 -29 -9 -13 5 -13 4 -4 -6 16 -16 43 -21 43 -8
0 6 4 8 8 5 4 -2 14 -1 20 3 10 6 10 13 1 34 -12 27 -29 36 -29 17z m25 -39
c-9 -8 -36 -10 -30 -2 2 4 11 8 20 8 8 0 13 -3 10 -6z"/>
<path d="M2551 1894 c7 -8 7 -14 -1 -19 -6 -3 -8 -10 -5 -15 3 -4 -2 -10 -10
-14 -8 -3 -17 -1 -20 5 -4 5 -11 7 -16 4 -5 -4 -9 -2 -9 2 0 5 -7 18 -16 29
-14 18 -15 18 -4 -4 11 -23 5 -46 -10 -37 -4 3 -13 -1 -19 -9 -9 -10 -8 -15 4
-20 9 -3 18 1 22 9 4 11 9 13 18 5 6 -5 15 -7 18 -3 4 3 7 0 7 -7 0 -9 5 -7
15 6 9 12 13 13 10 4 -4 -11 1 -16 16 -17 14 -1 18 2 11 10 -12 15 -12 47 0
47 5 0 6 -10 3 -22 -5 -19 -4 -20 5 -8 9 13 10 12 8 -4 -2 -10 3 -21 10 -23 7
-3 11 1 10 7 -2 7 5 14 15 15 15 3 16 1 6 -11 -6 -8 -8 -14 -3 -14 15 0 30 15
28 28 -3 23 -4 24 -16 15 -24 -18 -43 -9 -42 19 1 15 -3 25 -7 22 -5 -3 -9 -1
-9 4 0 5 -7 9 -15 9 -11 0 -12 -4 -4 -13z m-35 -56 c3 -4 -1 -5 -10 -4 -8 1
-18 5 -22 8 -3 4 1 5 10 4 8 -1 18 -5 22 -8z"/>
<path d="M4471 1894 c12 -15 3 -37 -12 -29 -5 4 -9 1 -9 -5 0 -6 -4 -9 -9 -5
-5 3 -12 1 -16 -4 -3 -5 -14 -8 -25 -6 -12 2 -18 0 -15 -6 4 -5 11 -6 17 -3 7
4 8 2 4 -5 -4 -6 -12 -9 -17 -5 -5 3 -22 -2 -37 -12 -15 -10 -30 -19 -34 -20
-5 -1 -10 -3 -13 -4 -20 -9 -50 -2 -49 12 1 10 -4 14 -11 12 -7 -3 -19 3 -27
13 -7 10 -24 24 -38 32 -14 7 -22 10 -18 6 4 -5 3 -14 -3 -22 -9 -10 -8 -13 2
-13 11 0 11 -3 -1 -11 -13 -9 -12 -10 3 -5 9 3 25 9 34 13 12 5 15 2 10 -10
-3 -9 -2 -19 3 -22 6 -4 10 0 10 7 1 7 9 3 20 -11 11 -12 18 -27 15 -31 -7
-12 25 -21 42 -12 8 5 14 12 14 15 -3 25 0 29 13 18 11 -9 19 -9 35 1 26 16
28 29 4 22 -15 -5 -16 -4 -3 5 11 8 18 7 26 -4 12 -16 25 -20 23 -7 -3 19 2
29 17 29 15 0 15 -1 0 -12 -14 -11 -14 -14 -2 -18 16 -6 30 19 19 35 -4 7 -1
8 7 3 9 -6 11 -4 5 5 -5 8 -4 11 3 6 6 -3 15 2 21 11 11 18 12 16 15 -26 1 -8
7 -16 14 -19 7 -2 11 2 10 8 -2 7 5 14 15 15 15 3 16 1 6 -11 -6 -8 -8 -14 -3
-14 15 0 30 15 28 28 -3 23 -4 24 -16 15 -24 -18 -43 -9 -42 19 1 15 -3 25 -7
22 -5 -3 -9 -1 -9 4 0 5 -7 9 -15 9 -11 0 -12 -4 -4 -13z m-286 -54 c3 -5 1
-10 -4 -10 -6 0 -11 5 -11 10 0 6 2 10 4 10 3 0 8 -4 11 -10z m105 -74 c0 -3
-4 -8 -10 -11 -5 -3 -10 -1 -10 4 0 6 5 11 10 11 6 0 10 -2 10 -4z"/>
<path d="M5195 1890 c8 -9 12 -20 8 -24 -4 -4 0 -4 10 0 9 3 14 11 10 18 -4 6
1 5 10 -3 9 -7 14 -18 10 -23 -3 -6 0 -8 8 -6 8 3 13 10 12 16 -2 6 4 9 13 5
11 -4 12 -8 4 -13 -7 -4 -8 -10 -3 -13 5 -3 15 3 22 15 7 11 8 17 2 13 -6 -3
-11 -2 -11 4 0 5 -9 8 -20 6 -11 -2 -20 0 -20 5 0 5 -9 7 -20 5 -11 -2 -20 0
-20 4 0 4 -7 8 -15 8 -13 0 -13 -2 0 -17z"/>
<path d="M2944 1894 c3 -7 -1 -17 -8 -23 -11 -10 -17 -8 -25 6 -10 17 -12 17
-22 0 -7 -13 -15 -15 -28 -7 -10 5 -21 7 -24 3 -4 -3 -14 0 -23 7 -13 12 -17
11 -24 0 -5 -8 -7 -17 -4 -21 2 -4 -3 -9 -11 -13 -8 -3 -17 -1 -20 4 -3 6 -15
6 -30 0 -14 -5 -25 -7 -25 -3 0 4 -11 -4 -25 -17 -16 -15 -38 -24 -67 -25 -41
-2 -49 -8 -32 -23 4 -4 4 -1 -1 7 -5 10 -4 12 4 7 6 -4 9 -12 6 -17 -8 -13 9
-11 22 2 8 8 17 8 31 0 28 -15 31 -14 27 8 -3 15 1 18 13 14 15 -4 15 -3 2 7
-13 10 -12 11 3 6 11 -3 20 0 24 9 4 13 8 13 21 3 13 -11 15 -11 8 2 -5 10 -3
9 6 -2 13 -15 15 -15 26 0 10 15 11 15 5 -2 -4 -13 -3 -17 5 -12 6 3 15 -2 21
-11 9 -16 10 -16 11 -1 0 9 -4 20 -10 23 -5 3 -10 12 -10 18 0 7 4 6 11 -3 9
-13 10 -12 5 3 -4 12 -2 16 6 11 7 -5 8 -3 3 6 -5 8 -4 11 3 6 6 -4 8 -14 5
-24 -6 -15 -5 -15 10 -3 9 7 14 18 10 24 -3 6 -1 7 6 3 6 -4 9 -11 6 -16 -3
-5 -1 -11 5 -15 5 -3 10 -1 10 5 0 6 5 8 11 4 8 -4 7 -9 -2 -15 -8 -5 -9 -9
-4 -9 20 0 38 17 26 24 -14 9 -14 26 -1 26 6 0 9 -6 8 -12 -2 -8 7 -12 25 -11
15 1 25 -2 22 -7 -4 -6 0 -10 7 -10 10 0 10 -2 -1 -9 -9 -6 -10 -10 -2 -14 7
-3 7 -4 -1 -2 -7 1 -12 7 -11 13 2 6 -6 10 -17 9 -27 -2 -25 -11 4 -26 18 -10
28 -10 46 -1 12 6 19 14 16 17 -3 4 -1 12 5 20 9 10 8 13 -4 13 -8 0 -25 12
-37 28 -12 15 -19 22 -16 16z m36 -49 c7 -9 8 -15 2 -15 -5 0 -12 7 -16 15 -3
8 -4 15 -2 15 2 0 9 -7 16 -15z"/>
<path d="M4383 1885 c0 -8 4 -12 9 -9 5 3 6 10 3 15 -9 13 -12 11 -12 -6z"/>
<path d="M4864 1894 c3 -7 -1 -17 -8 -23 -11 -10 -17 -8 -25 6 -10 17 -12 17
-22 0 -7 -13 -15 -15 -28 -7 -10 5 -21 7 -24 3 -4 -3 -14 0 -23 7 -13 12 -17
11 -24 0 -5 -8 -7 -17 -4 -21 2 -4 -3 -9 -11 -13 -8 -3 -17 -1 -20 4 -3 6 -15
6 -30 0 -14 -5 -25 -7 -25 -3 0 4 -11 -3 -23 -16 -41 -38 -125 -34 -110 5 10
25 -5 15 -26 -19 -17 -27 -27 -33 -50 -32 -18 1 -28 -2 -24 -8 4 -6 0 -8 -10
-4 -18 7 -61 -39 -51 -55 4 -6 10 -5 15 3 4 7 5 17 3 21 -3 5 0 7 8 6 7 -2 12
4 10 12 -2 8 0 11 5 7 4 -5 8 -14 8 -19 0 -6 5 -13 12 -15 8 -3 11 3 8 16 -2
10 2 22 9 24 9 4 12 -3 10 -19 -2 -18 2 -24 14 -22 23 4 33 19 26 41 -6 18 11
24 21 7 4 -6 11 -8 16 -4 5 3 6 10 3 16 -4 7 -2 8 5 4 6 -4 9 -12 6 -17 -8
-13 9 -11 22 2 8 8 17 8 31 0 28 -15 31 -14 27 8 -3 15 1 18 13 14 15 -4 15
-3 2 7 -13 10 -12 11 3 6 11 -3 20 0 24 9 4 13 8 13 21 3 13 -11 15 -11 8 2
-5 10 -3 9 6 -2 13 -15 15 -15 26 0 10 15 11 15 5 -2 -4 -13 -3 -17 5 -12 6 3
15 -2 21 -11 9 -16 10 -16 11 -1 0 9 -4 20 -10 23 -5 3 -10 12 -10 18 0 7 4 6
11 -3 9 -13 10 -12 5 3 -4 12 -2 16 6 11 7 -5 8 -3 3 6 -5 8 -4 11 3 6 6 -4 8
-14 5 -24 -6 -15 -5 -15 10 -3 9 7 14 18 10 24 -3 6 -1 7 6 3 6 -4 9 -11 6
-16 -3 -5 -1 -11 5 -15 5 -3 10 -1 10 5 0 6 5 8 11 4 8 -4 7 -9 -2 -15 -8 -5
-9 -9 -4 -9 20 0 38 17 26 24 -14 9 -14 26 -1 26 6 0 9 -6 8 -12 -2 -8 7 -12
25 -11 15 1 25 -2 22 -7 -4 -6 -1 -10 4 -10 6 0 11 5 11 11 0 5 5 7 11 3 8 -4
7 -9 -2 -15 -8 -5 -9 -9 -3 -9 6 0 17 7 24 15 10 12 10 15 -3 15 -8 0 -25 12
-37 28 -12 15 -19 22 -16 16z m-378 -100 c2 -12 -1 -13 -12 -3 -7 6 -11 16 -8
21 7 11 17 3 20 -18z m-41 -34 c3 -5 1 -10 -4 -10 -6 0 -11 5 -11 10 0 6 2 10
4 10 3 0 8 -4 11 -10z"/>
<path d="M2310 1879 c0 -5 -4 -8 -9 -4 -5 3 -12 1 -16 -4 -3 -6 -12 -8 -19 -5
-7 3 -19 -3 -27 -12 -9 -12 -10 -15 -1 -10 6 4 12 3 12 -2 0 -5 -13 -15 -30
-22 -33 -14 -38 -25 -14 -34 23 -9 31 -7 14 4 -8 5 -11 12 -7 17 9 9 28 -17
21 -29 -3 -4 0 -8 6 -8 7 0 9 7 6 16 -4 10 -2 13 7 9 6 -4 3 1 -8 10 -20 17
-20 17 2 11 23 -7 26 5 8 34 -7 13 -6 13 7 2 14 -11 18 -10 27 5 8 14 10 15
11 3 0 -13 1 -13 10 0 9 13 11 13 20 0 9 -13 10 -13 10 0 0 10 3 11 8 4 4 -6
15 -10 25 -8 9 1 15 -1 12 -5 -2 -4 3 -8 12 -8 12 0 11 4 -7 19 -12 10 -26 15
-31 12 -5 -3 -9 1 -9 8 0 9 -3 9 -10 -2 -6 -10 -10 -11 -10 -2 0 6 -4 12 -10
12 -5 0 -10 -5 -10 -11z"/>
<path d="M3304 1874 c4 -13 1 -21 -6 -22 -7 -1 -26 -3 -43 -5 -16 -2 -29 -6
-27 -10 1 -4 5 -7 8 -6 4 0 10 -4 13 -10 5 -7 15 -4 30 10 19 18 22 19 19 4
-2 -10 2 -20 9 -22 8 -3 11 3 8 18 -2 12 -2 19 2 15 3 -3 13 0 21 7 13 10 14
9 7 -3 -18 -28 -15 -41 8 -35 16 5 18 4 8 -3 -8 -6 -9 -12 -3 -16 6 -3 13 0
15 6 4 10 8 9 16 -2 5 -8 13 -11 18 -7 4 5 1 12 -7 17 -11 7 -10 9 7 8 11 -1
20 -7 19 -13 -2 -5 -1 -7 1 -2 3 4 10 7 16 7 13 0 -9 -24 -23 -26 -6 -1 -15
-2 -21 -3 -5 0 -7 -6 -4 -11 4 -6 10 -8 15 -5 7 4 7 -17 0 -35 -1 -3 -2 -8 -1
-12 0 -5 -4 -8 -11 -8 -16 0 -1 -13 18 -16 11 -2 13 3 8 19 -6 20 -5 20 7 5
10 -13 18 -15 29 -8 13 9 13 11 0 19 -8 5 -17 8 -21 5 -11 -6 -18 21 -9 36 4
7 13 9 20 5 8 -5 11 -4 6 3 -3 5 0 13 6 16 11 5 11 7 0 12 -6 3 -9 11 -6 16 4
6 2 8 -4 5 -12 -8 -44 2 -37 12 2 4 -2 8 -10 8 -8 0 -12 -4 -9 -8 7 -12 -12
-20 -31 -13 -9 4 -14 13 -11 20 3 8 -4 18 -14 24 -11 6 -20 7 -20 3 0 -4 -5
-1 -11 7 -8 12 -9 11 -5 -6z"/>
<path d="M5035 1871 c-3 -12 -10 -19 -15 -16 -4 3 -13 -2 -19 -9 -8 -10 -9
-16 -1 -21 5 -3 10 -14 10 -23 0 -15 -2 -15 -10 -2 -9 13 -10 13 -10 0 0 -13
-1 -13 -10 0 -5 8 -10 11 -10 6 0 -5 -9 -1 -20 9 -16 14 -23 15 -34 6 -11 -10
-21 -9 -45 4 -26 13 -32 13 -37 2 -7 -18 -35 -18 -56 0 -15 13 -18 12 -32 -16
-20 -38 -20 -47 -1 -31 8 6 14 15 13 18 -2 20 5 21 31 8 16 -9 32 -12 36 -8 5
4 5 1 1 -5 -5 -9 -2 -11 9 -6 13 5 14 7 3 14 -7 5 -10 9 -5 9 4 0 16 -5 26
-12 15 -9 25 -8 48 7 23 15 26 16 14 2 -16 -20 -1 -23 18 -4 11 10 12 9 6 -3
-5 -8 -5 -12 0 -8 13 12 34 -11 29 -30 -3 -9 2 -6 10 8 8 14 15 21 16 16 0 -4
11 -1 24 8 15 9 26 12 30 5 2 -5 3 -4 2 3 -2 7 -10 13 -19 13 -8 0 -19 4 -24
9 -5 5 -2 6 6 1 10 -6 12 -4 6 5 -6 9 -4 11 5 5 9 -6 11 -4 5 5 -5 9 -4 11 3
6 8 -5 10 -1 6 11 -3 11 -2 14 3 8 10 -13 23 -13 43 0 12 7 13 6 3 -7 -7 -8
-10 -18 -6 -21 9 -10 25 -9 19 1 -2 4 -1 14 3 21 6 9 11 10 15 2 4 -6 1 -11
-6 -11 -9 0 -9 -3 2 -10 19 -12 33 -13 25 -1 -3 5 -1 12 4 15 5 4 12 2 16 -4
4 -6 11 -8 16 -5 5 4 9 2 9 -3 0 -5 14 -9 31 -10 23 -1 28 2 20 12 -6 7 -9 16
-6 20 3 3 -1 2 -7 -4 -18 -15 -41 -12 -35 5 9 22 -12 29 -31 11 -10 -8 -23
-12 -30 -7 -7 4 -27 7 -45 6 -17 -1 -35 3 -38 8 -4 5 -10 0 -14 -12z m-150
-69 c-3 -3 -11 0 -18 7 -9 10 -8 11 6 5 10 -3 15 -9 12 -12z"/>
<path d="M2412 1853 c3 -20 -20 -25 -41 -9 -17 13 -21 12 -32 -5 -13 -21 2
-32 18 -12 8 10 11 12 7 4 -5 -10 -3 -12 6 -6 9 5 11 4 6 -3 -10 -16 -1 -15
35 4 25 12 28 18 18 30 -15 19 -21 18 -17 -3z"/>
<path d="M1783 1854 c4 -7 -1 -18 -10 -25 -10 -8 -14 -9 -10 -2 4 6 3 14 -1
17 -5 3 -9 -11 -8 -32 1 -27 -3 -37 -14 -37 -27 -1 -42 -15 -30 -30 7 -9 6
-16 -4 -24 -15 -12 -18 -51 -5 -51 9 0 6 -20 -4 -37 -6 -9 -3 -11 7 -7 14 5
17 -10 5 -31 -4 -5 -5 -18 -4 -27 2 -10 -2 -18 -8 -18 -14 0 0 -13 18 -16 7
-1 16 5 19 13 3 7 2 11 -3 8 -5 -3 -13 0 -17 6 -5 8 -3 9 7 4 8 -5 11 -5 7 0
-4 4 -3 14 3 22 6 7 8 13 3 13 -5 0 -3 4 4 8 9 6 7 13 -8 29 -18 20 -19 22 -2
27 10 3 18 15 19 25 1 15 -4 18 -23 16 -20 -2 -22 0 -12 12 8 10 13 11 18 2 6
-8 9 -8 14 0 4 6 3 11 -2 11 -5 0 -9 7 -9 16 0 12 4 11 17 -6 15 -20 17 -21
31 -4 12 16 12 17 -4 11 -10 -4 -16 -3 -12 2 3 5 2 11 -2 14 -5 2 -3 3 2 1 6
-1 11 6 11 16 0 10 -5 16 -10 13 -5 -3 -6 -1 -2 6 4 6 11 9 16 6 4 -3 11 3 14
12 6 14 9 15 15 4 5 -7 11 -12 15 -12 18 3 23 0 23 -14 0 -8 -4 -12 -9 -9 -4
3 -8 0 -8 -6 0 -6 8 -10 18 -8 9 2 16 11 14 18 -2 10 4 8 19 -5 12 -11 19 -14
14 -6 -6 10 -4 12 4 7 9 -6 9 -11 1 -21 -8 -9 -6 -14 5 -19 9 -3 13 -2 10 3
-3 5 -1 12 5 16 16 10 12 22 -12 30 -13 4 -26 8 -30 10 -5 1 -13 3 -19 4 -5 0
-7 7 -3 14 4 6 3 9 -1 4 -5 -4 -17 0 -27 10 -10 9 -18 13 -18 8 0 -4 -8 -1
-17 6 -9 8 -14 9 -10 3z m-56 -99 c0 -8 -4 -12 -9 -9 -5 3 -6 10 -3 15 9 13
12 11 12 -6z m3 -69 c0 -3 -4 -8 -10 -11 -5 -3 -10 -1 -10 4 0 6 5 11 10 11 6
0 10 -2 10 -4z"/>
<path d="M3997 1845 c-16 -16 -12 -51 6 -58 8 -3 12 9 12 34 0 22 -1 39 -2 39
-1 0 -8 -7 -16 -15z"/>
<path d="M2284 1839 c-5 -8 -10 -23 -12 -34 -5 -35 -26 -49 -53 -35 -13 7 -31
21 -39 32 -19 23 -46 16 -57 -15 -4 -12 -6 -25 -5 -29 3 -13 -16 -9 -21 5 -4
9 -6 9 -6 -1 -1 -7 -5 -10 -11 -7 -10 6 -14 -7 -10 -34 1 -9 -4 -12 -14 -8
-19 7 -32 -11 -18 -25 6 -6 12 -6 16 1 4 5 14 8 24 5 13 -5 14 -4 3 4 -10 7
-10 11 -1 17 9 6 9 10 -1 16 -10 6 -11 9 -1 9 6 0 15 0 19 0 4 0 8 -6 9 -15 1
-8 -2 -12 -8 -9 -6 4 -9 1 -6 -6 2 -7 11 -14 20 -16 13 -2 16 5 13 27 -2 19 0
27 7 23 6 -4 8 -2 5 4 -5 6 0 8 13 5 12 -3 20 0 20 6 0 7 -7 11 -16 9 -10 -2
-19 2 -21 8 -2 7 6 11 21 10 13 0 22 -4 19 -8 -2 -5 1 -9 6 -9 6 -1 17 -2 24
-3 6 0 12 -6 12 -13 0 -6 3 -15 8 -19 4 -4 7 -3 7 3 0 5 7 10 15 11 8 1 22 3
30 4 8 1 12 5 9 10 -3 4 3 5 13 2 16 -6 15 -4 -2 10 -11 10 -13 14 -5 10 12
-5 13 -4 3 6 -10 11 -9 16 2 24 9 7 11 16 6 25 -7 11 -10 11 -17 0z m-114 -39
c0 -5 -5 -10 -11 -10 -5 0 -7 5 -4 10 3 6 8 10 11 10 2 0 4 -4 4 -10z"/>
<path d="M2310 1840 c0 -5 5 -10 10 -10 6 0 10 5 10 10 0 6 -4 10 -10 10 -5 0
-10 -4 -10 -10z"/>
<path d="M3135 1840 c-4 -6 -1 -17 5 -25 12 -15 5 -39 -10 -30 -4 3 -20 -1
-34 -9 -23 -12 -24 -15 -11 -26 9 -7 18 -10 22 -6 3 3 1 6 -6 6 -7 0 -9 5 -5
11 4 8 9 7 15 -2 4 -7 11 -10 16 -6 4 5 1 13 -7 18 -12 9 -11 10 4 5 10 -4 24
-2 31 4 7 6 23 13 35 15 18 3 20 2 10 -10 -7 -9 -8 -15 -2 -15 19 0 22 31 4
37 -9 3 -27 15 -38 25 -15 13 -24 16 -29 8z m45 -36 c0 -2 -9 0 -20 6 -11 6
-20 13 -20 16 0 2 9 0 20 -6 11 -6 20 -13 20 -16z"/>
<path d="M5055 1840 c-4 -6 -1 -17 5 -25 12 -15 5 -39 -10 -30 -4 3 -20 -1
-34 -9 -23 -12 -24 -15 -11 -26 9 -7 18 -10 22 -6 3 3 1 6 -6 6 -7 0 -9 5 -5
11 4 8 9 7 15 -2 4 -7 11 -10 16 -6 4 5 1 13 -7 18 -12 9 -12 10 3 5 10 -3 27
0 37 7 20 12 20 12 -2 30 l-23 18 25 -12 c25 -12 25 -12 6 10 -22 24 -23 25
-31 11z"/>
<path d="M5152 1838 c2 -8 -6 -12 -22 -11 -22 2 -23 1 -7 -8 9 -5 22 -7 27 -4
6 3 7 -1 4 -9 -8 -21 6 -20 22 2 11 13 13 13 11 2 -2 -8 -2 -12 0 -7 3 4 9 7
15 7 6 0 6 -6 -2 -15 -17 -20 4 -20 24 1 12 12 16 12 16 2 0 -10 3 -9 10 2 7
11 10 12 10 2 0 -10 4 -10 16 2 19 19 31 21 15 3 -6 -8 -8 -17 -5 -20 4 -4 -3
-5 -14 -2 -15 3 -20 -1 -19 -16 1 -20 17 -27 17 -8 0 5 4 8 9 5 11 -7 24 20
26 56 2 26 1 26 -22 11 -22 -15 -23 -14 -17 3 5 17 4 17 -8 -1 -14 -22 -56
-35 -42 -14 4 8 3 10 -5 5 -6 -4 -23 0 -37 8 -17 12 -23 13 -22 4z"/>
<path d="M2826 1811 c-20 -38 -20 -47 -1 -31 8 6 14 15 13 18 -2 20 5 21 35 5
17 -9 39 -16 47 -15 8 1 5 -4 -8 -11 -12 -7 -20 -16 -16 -20 4 -4 13 -2 21 4
9 9 13 8 13 0 0 -10 -14 -15 -33 -12 -13 2 -3 -33 13 -46 15 -12 30 -1 30 22
0 6 -4 4 -9 -4 -6 -9 -11 -10 -15 -2 -7 10 6 16 27 12 4 -1 7 5 5 13 -2 8 0
14 3 13 3 -1 14 5 24 13 11 8 16 10 12 4 -4 -7 2 -11 16 -10 13 1 23 -5 23
-14 1 -8 2 -21 3 -28 0 -7 6 -10 12 -6 8 4 7 9 -2 15 -8 5 -9 9 -3 9 17 0 9
43 -9 46 -9 1 -17 -2 -17 -8 0 -6 -5 -6 -14 1 -11 9 -20 9 -35 2 -24 -14 -34
-14 -26 -2 6 11 -34 37 -49 33 -5 -2 -17 5 -27 13 -16 16 -19 15 -33 -14z"/>
<path d="M3922 1809 c-18 -17 -32 -35 -32 -39 0 -5 -13 -7 -29 -5 -24 3 -29 0
-28 -16 1 -10 5 -19 10 -19 5 0 6 7 3 16 -3 8 -2 12 4 9 20 -12 51 -14 44 -3
-4 6 -3 8 3 5 6 -4 17 1 24 10 12 15 12 16 -6 9 -18 -6 -17 -5 3 14 13 12 26
19 30 15 3 -3 0 -10 -8 -15 -8 -6 -13 -10 -10 -11 3 0 13 -2 23 -4 20 -4 21
-1 6 28 -10 21 -10 21 5 3 9 -11 16 -24 16 -30 0 -5 3 -7 6 -4 5 5 -22 68 -29
68 -2 0 -18 -14 -35 -31z"/>
<path d="M2306 1811 c-7 -11 3 -41 14 -41 11 0 21 30 14 41 -3 5 -9 9 -14 9
-5 0 -11 -4 -14 -9z m24 -11 c0 -5 -2 -10 -4 -10 -3 0 -8 5 -11 10 -3 6 -1 10
4 10 6 0 11 -4 11 -10z"/>
<path d="M2403 1809 c-22 -8 -23 -39 -1 -39 6 0 4 8 -3 17 -8 10 -9 14 -2 10
6 -4 15 -2 18 4 5 7 12 3 22 -10 18 -27 37 -28 21 -1 -16 25 -28 29 -55 19z"/>
<path d="M2464 1808 c-4 -6 1 -17 10 -24 13 -9 14 -13 4 -17 -10 -4 -10 -8 2
-16 8 -6 20 -10 25 -10 6 0 4 3 -2 6 -7 2 -13 9 -13 15 0 7 5 6 14 -1 10 -8
16 -9 21 -1 3 5 -1 10 -9 10 -8 0 -17 4 -21 9 -3 6 4 9 15 8 11 -1 23 -10 26
-20 5 -15 8 -17 15 -6 4 7 11 10 16 6 4 -5 2 -12 -5 -16 -10 -6 -10 -10 2 -20
26 -22 29 8 5 44 -14 19 -26 29 -30 23 -4 -7 -8 -5 -12 3 -4 11 -6 11 -6 1 -1
-10 -5 -10 -17 2 -18 19 -30 20 -40 4z m21 -8 c3 -5 1 -10 -4 -10 -6 0 -11 5
-11 10 0 6 2 10 4 10 3 0 8 -4 11 -10z"/>
<path d="M2691 1800 c-13 -11 -18 -20 -12 -20 6 0 11 -4 11 -9 0 -10 -58 -6
-68 4 -8 8 -32 -16 -26 -27 3 -5 1 -15 -5 -22 -8 -9 -7 -18 2 -30 12 -17 14
-17 28 0 12 16 12 17 -3 11 -10 -3 -20 -2 -23 4 -4 5 -3 9 2 8 4 -1 15 -1 23
0 12 1 13 3 1 10 -19 12 -5 31 19 25 11 -2 29 -6 40 -8 13 -3 18 -1 14 6 -4 6
-3 8 4 4 6 -3 13 -2 17 4 4 6 11 8 16 5 5 -3 6 1 3 10 -5 11 -10 13 -19 5 -10
-8 -15 -8 -21 1 -5 8 -3 9 6 4 9 -6 11 -4 5 5 -6 9 -4 11 5 5 9 -6 11 -4 5 6
-7 11 -5 11 10 -1 10 -8 21 -14 24 -13 3 1 4 -8 3 -20 -2 -12 0 -18 4 -14 14
13 15 54 2 54 -7 0 -20 3 -28 7 -8 3 -26 -3 -39 -14z"/>
<path d="M3266 1811 c-8 -12 3 -41 15 -41 5 0 9 5 9 11 0 5 5 7 11 3 8 -4 7
-9 -2 -15 -10 -6 -10 -9 -2 -9 6 0 15 5 18 10 4 6 11 7 17 4 7 -4 8 -2 4 4 -4
7 -3 12 3 12 5 0 11 -5 13 -12 3 -8 9 -8 24 1 10 7 12 10 4 8 -9 -3 -24 1 -35
9 -12 9 -22 10 -31 4 -8 -7 -13 -6 -18 5 -6 17 -22 20 -30 6z m24 -5 c0 -3 -4
-8 -10 -11 -5 -3 -10 -1 -10 4 0 6 5 11 10 11 6 0 10 -2 10 -4z"/>
<path d="M4071 1804 c-16 -12 -21 -12 -21 -2 0 10 -2 10 -9 -1 -7 -11 -9 -11
-14 0 -2 8 -4 2 -3 -13 1 -20 4 -24 14 -16 6 6 12 7 12 2 0 -5 7 0 15 10 8 11
15 16 15 10 0 -5 4 -3 9 4 7 11 9 11 14 -2 4 -9 3 -15 -1 -15 -18 3 -35 -2
-28 -8 11 -11 36 -12 36 -1 0 6 7 7 16 4 9 -4 23 -1 30 5 11 9 14 9 14 0 0 -7
5 -9 10 -6 6 4 7 11 4 17 -4 7 -2 8 5 4 8 -6 9 -12 2 -20 -8 -9 -7 -13 4 -13
8 0 12 3 10 7 -2 4 2 7 10 7 11 0 12 -4 4 -14 -12 -14 -1 -17 18 -5 8 5 9 13
3 22 -5 8 -12 11 -16 7 -10 -10 -35 13 -27 26 4 6 -9 2 -28 -9 -32 -19 -65
-22 -54 -4 10 15 -23 18 -44 4z"/>
<path d="M4611 1800 c-13 -11 -18 -20 -12 -20 6 0 11 -4 11 -9 0 -10 -58 -6
-68 4 -3 2 -11 0 -18 -6 -16 -13 -1 -49 19 -49 8 0 8 3 -2 9 -19 12 -5 31 19
25 11 -2 29 -6 40 -8 13 -3 18 -1 14 6 -4 6 -3 8 4 4 6 -3 13 -2 17 4 4 6 11
8 16 5 5 -3 6 1 3 10 -5 11 -10 13 -19 5 -10 -8 -15 -8 -21 1 -5 8 -3 9 6 4 9
-6 11 -4 5 5 -6 9 -4 11 5 5 9 -6 11 -4 5 6 -7 11 -5 11 10 -1 10 -8 21 -14
24 -13 3 1 4 -8 3 -20 -2 -12 0 -18 4 -14 14 13 15 54 2 54 -7 0 -20 3 -28 7
-8 3 -26 -3 -39 -14z"/>
<path d="M1793 1799 c-11 -11 -6 -49 7 -49 5 0 10 5 12 12 3 9 6 9 12 0 4 -7
2 -12 -4 -12 -6 0 -8 -5 -5 -10 5 -8 11 -8 20 0 10 8 17 6 27 -8 15 -21 46
-25 68 -8 8 7 25 11 38 10 17 -1 22 3 17 15 -5 12 -3 13 5 5 9 -9 9 -17 0 -34
-10 -18 -10 -21 2 -14 8 5 7 -1 -4 -19 -23 -34 -23 -40 2 -25 11 7 18 20 15
28 -3 9 1 7 10 -4 8 -11 15 -24 15 -29 0 -4 5 -5 10 -2 6 4 0 18 -15 36 -20
24 -23 34 -15 50 6 10 8 20 5 20 -3 1 -9 3 -15 4 -5 1 -15 3 -21 4 -5 0 -8 5
-5 9 2 4 -4 8 -14 8 -10 0 -17 -3 -14 -7 2 -4 -3 -9 -11 -13 -8 -3 -12 -12 -9
-19 4 -10 -2 -14 -19 -14 -16 0 -24 5 -23 16 1 9 -3 16 -9 16 -5 0 -9 -3 -7
-7 3 -11 -6 -10 -29 3 -14 7 -18 17 -15 32 3 12 3 16 0 8 -5 -9 -9 -10 -13 -2
-5 8 -10 8 -18 0z m17 -19 c0 -5 -2 -10 -4 -10 -3 0 -8 5 -11 10 -3 6 -1 10 4
10 6 0 11 -4 11 -10z m155 -20 c3 -5 1 -10 -4 -10 -6 0 -11 5 -11 10 0 6 2 10
4 10 3 0 8 -4 11 -10z"/>
<path d="M2350 1800 c0 -5 0 -13 0 -17 -1 -11 -63 -42 -72 -36 -5 2 -8 -1 -8
-7 0 -6 -4 -9 -8 -6 -4 2 -14 1 -22 -4 -11 -7 -11 -12 -2 -23 7 -7 9 -17 5
-21 -4 -4 1 -4 10 0 13 5 15 10 8 17 -6 6 -11 15 -11 21 0 5 6 1 14 -10 8 -10
18 -16 22 -11 4 4 2 7 -4 7 -17 0 -15 17 2 23 11 4 13 1 9 -11 -6 -15 -5 -15
11 -3 15 13 19 13 26 1 5 -8 6 -18 3 -23 -3 -5 0 -7 8 -5 8 3 12 12 10 19 -2
8 -4 20 -4 27 0 8 -8 10 -21 6 -12 -4 -18 -3 -14 1 14 15 57 13 62 -2 5 -13 9
-13 23 -2 14 12 16 12 9 0 -6 -9 -4 -12 5 -9 8 3 14 10 14 16 0 5 4 14 8 19 5
4 7 1 5 -7 -2 -9 3 -14 11 -12 11 2 12 0 3 -11 -7 -8 -9 -17 -5 -20 3 -4 0 -7
-7 -7 -17 0 -4 -13 16 -16 11 -2 13 4 9 19 -5 17 -4 19 4 7 8 -11 11 -11 11
-2 0 8 8 6 22 -8 24 -22 38 -19 19 4 -8 10 -9 16 -1 21 6 4 10 3 9 -2 -4 -20
2 -27 12 -13 9 13 10 12 5 -3 -4 -12 -2 -16 6 -11 7 5 8 3 3 -6 -5 -9 -4 -11
3 -6 8 5 10 1 6 -11 -5 -15 -4 -16 5 -3 10 13 11 12 9 -4 -2 -10 2 -21 8 -23
21 -7 10 26 -21 63 -27 32 -35 36 -48 26 -20 -17 -37 -12 -65 21 -13 15 -29
27 -35 27 -8 0 -7 -3 1 -9 11 -6 10 -10 -3 -15 -20 -7 -45 10 -45 30 0 8 -4
14 -10 14 -5 0 -10 -4 -10 -10z m26 -32 c12 -14 13 -18 3 -10 -9 6 -18 10 -21
7 -2 -3 -5 2 -5 10 0 19 0 19 23 -7z"/>
<path d="M2786 1791 c4 -17 3 -21 -6 -16 -8 5 -11 4 -7 -1 3 -6 2 -16 -2 -23
-7 -10 -13 -10 -29 -2 -18 9 -23 8 -32 -9 -9 -17 -8 -19 7 -14 15 5 16 4 3 -6
-13 -9 -12 -11 5 -7 11 2 19 8 18 14 -1 5 9 9 22 8 37 -5 50 18 30 52 -14 24
-15 25 -9 4z"/>
<path d="M2844 1803 c3 -3 -1 -15 -11 -25 -9 -10 -12 -18 -7 -18 5 0 0 -6 -11
-14 -11 -7 -22 -13 -25 -13 -15 1 -50 -25 -44 -34 12 -20 -31 -4 -46 17 -8 12
-23 20 -32 18 -10 -1 -18 1 -18 5 0 4 -7 8 -15 8 -10 0 -12 -4 -5 -12 5 -7 7
-15 3 -18 -3 -4 -1 -7 5 -7 6 0 14 5 17 11 5 7 13 4 26 -7 10 -9 16 -21 12
-27 -4 -6 -1 -7 8 -2 8 5 11 4 6 -1 -5 -5 -13 -10 -18 -10 -22 -3 -23 -5 -9
-14 11 -7 20 -4 33 13 10 12 15 16 11 8 -5 -9 -3 -12 4 -7 8 5 10 1 5 -11 -6
-16 -5 -16 10 -4 9 7 14 18 10 25 -4 7 -1 6 9 -1 8 -7 18 -10 21 -6 10 9 9 25
-1 19 -4 -2 -14 -1 -22 4 -10 6 -3 8 22 6 32 -3 36 -1 32 17 -3 16 -1 18 8 9
17 -17 33 -15 19 2 -8 10 -9 16 -1 21 6 3 7 11 4 17 -4 7 -2 8 5 4 6 -4 9 -12
6 -17 -4 -5 0 -9 7 -9 11 0 10 -2 0 -9 -11 -6 -10 -10 4 -15 9 -3 19 -4 22 -1
3 3 0 5 -8 5 -9 0 -10 3 -1 13 8 10 7 17 -2 27 -9 10 -9 11 1 6 6 -4 12 -4 12
1 0 4 -12 13 -26 20 -15 7 -24 10 -20 6z"/>
<path d="M3230 1796 c0 -24 -26 -39 -49 -27 -16 9 -23 7 -38 -12 -22 -27 -40
-32 -59 -16 -14 12 -28 6 -30 -12 -1 -5 -2 -13 -3 -19 0 -5 -14 -7 -30 -5 -19
2 -31 -2 -35 -11 -8 -21 2 -40 23 -41 14 -1 18 4 16 22 -2 20 1 23 16 15 12
-7 20 -6 25 2 5 7 3 8 -6 3 -9 -5 -11 -4 -6 4 6 9 11 9 22 0 17 -14 18 -6 3
24 -9 20 -9 20 4 5 11 -14 16 -15 27 -5 9 9 11 9 6 0 -3 -6 -2 -14 3 -17 9 -6
26 22 23 37 -1 4 4 6 11 5 6 -2 11 4 9 12 -2 8 0 11 5 7 4 -5 8 -14 8 -19 0
-6 6 -13 14 -16 9 -3 11 0 5 9 -6 12 -5 12 8 1 19 -15 34 0 22 21 -6 9 -4 9 8
-1 13 -10 16 -9 20 5 3 10 3 24 1 31 -6 16 -23 15 -23 -2z m-220 -116 c0 -5
-5 -10 -11 -10 -5 0 -7 5 -4 10 3 6 8 10 11 10 2 0 4 -4 4 -10z"/>
<path d="M3596 1802 c-8 -13 17 -22 33 -12 9 5 10 10 2 14 -6 4 -11 1 -11 -6
0 -10 -2 -10 -9 1 -5 8 -11 9 -15 3z"/>
<path d="M4706 1791 c4 -17 3 -21 -6 -16 -8 5 -11 4 -7 -1 3 -6 2 -16 -2 -23
-7 -10 -13 -10 -29 -2 -18 9 -23 8 -32 -9 -9 -17 -8 -19 7 -14 15 5 16 4 3 -6
-13 -9 -12 -11 5 -7 11 2 19 8 18 14 -1 5 9 9 22 8 37 -5 50 18 30 52 -14 24
-15 25 -9 4z"/>
<path d="M4763 1805 c4 -5 0 -17 -10 -27 -9 -10 -12 -18 -7 -18 5 0 0 -6 -11
-14 -11 -7 -22 -13 -25 -13 -15 1 -50 -25 -44 -34 12 -20 -31 -4 -46 17 -8 12
-23 20 -32 18 -10 -1 -18 1 -18 5 0 4 -7 8 -15 8 -10 0 -12 -4 -5 -12 10 -12
4 -25 -12 -25 -4 0 -18 15 -29 33 -12 17 -19 25 -16 16 3 -9 -1 -16 -8 -16 -7
0 -11 6 -8 13 2 6 0 15 -5 18 -5 3 -8 -5 -7 -19 3 -26 -7 -33 -42 -30 -13 1
-23 -3 -23 -8 0 -6 -9 -2 -19 7 -19 17 -20 17 -30 -2 -11 -21 -5 -52 10 -52 5
0 9 6 9 14 0 8 5 18 12 22 8 5 9 2 5 -9 -3 -9 -1 -19 5 -23 6 -4 8 -3 5 3 -8
12 17 36 26 26 4 -3 7 -1 7 5 0 6 9 9 20 7 11 -2 20 0 20 5 0 5 9 8 20 7 10
-1 17 -3 15 -5 -2 -3 0 -13 6 -23 9 -19 11 -18 43 6 32 24 33 24 49 7 10 -10
14 -22 10 -27 -5 -4 -1 -5 7 0 9 5 12 5 7 -1 -5 -5 -13 -10 -18 -10 -22 -3
-23 -5 -9 -14 11 -7 20 -4 33 13 10 12 15 16 11 8 -5 -9 -3 -12 4 -7 8 5 10 1
5 -11 -6 -16 -5 -16 10 -4 9 7 14 18 10 25 -4 7 -1 6 9 -1 8 -7 18 -10 21 -6
10 9 9 25 -1 19 -4 -2 -14 -1 -22 4 -10 6 -3 8 22 6 32 -3 36 -1 32 17 -3 16
-1 18 8 9 17 -17 33 -15 19 2 -8 10 -9 16 -1 21 6 3 7 11 4 17 -4 7 -2 8 5 4
6 -4 8 -12 5 -18 -4 -6 -1 -8 7 -6 8 3 13 12 11 19 -2 9 2 8 15 -4 15 -13 22
-14 31 -5 9 9 12 9 12 0 0 -11 -13 -16 -33 -13 -13 2 -3 -33 13 -46 15 -12 30
-1 30 22 0 6 -4 4 -9 -4 -6 -9 -11 -10 -15 -2 -7 10 6 16 27 12 4 -1 7 7 5 16
-2 10 2 18 7 18 6 0 16 4 24 9 9 6 12 5 8 -1 -4 -6 3 -10 16 -9 13 1 23 -5 23
-14 1 -8 2 -21 3 -28 0 -7 6 -10 12 -6 8 4 7 9 -2 15 -8 5 -9 9 -3 9 17 0 9
43 -9 46 -9 1 -17 -2 -17 -8 0 -6 -5 -6 -14 1 -11 9 -20 9 -35 2 -25 -14 -34
-14 -25 0 4 7 -1 7 -16 -1 -12 -7 -25 -8 -29 -4 -3 5 -17 15 -31 23 -14 7 -22
10 -17 6z m-394 -101 c-6 -8 -15 -12 -18 -8 -3 4 0 9 7 11 6 3 9 10 6 15 -4 7
-2 8 5 4 9 -6 9 -11 0 -22z"/>
<path d="M5105 1789 c3 -15 0 -19 -10 -15 -8 3 -22 -5 -32 -17 -22 -27 -40
-32 -59 -16 -14 12 -28 6 -30 -12 -1 -5 -2 -13 -3 -19 0 -5 -14 -7 -30 -5 -19
2 -31 -2 -35 -11 -8 -21 2 -40 23 -41 14 -1 18 4 16 22 -2 20 1 23 16 15 12
-7 20 -6 25 2 5 7 3 8 -6 3 -9 -5 -11 -4 -6 4 6 9 11 9 22 0 17 -14 18 -6 3
24 -9 20 -9 20 4 5 11 -14 16 -15 27 -5 9 9 11 9 6 0 -3 -6 -2 -14 3 -17 9 -6
26 22 23 37 -1 4 4 6 11 5 6 -2 11 4 9 12 -2 8 0 11 5 7 4 -5 8 -14 8 -19 0
-6 6 -13 14 -16 8 -3 11 0 7 7 -4 6 -1 11 6 11 9 0 9 3 -2 10 -13 9 -13 10 0
10 13 0 13 1 0 10 -13 8 -13 10 2 10 9 0 20 -4 23 -10 3 -5 2 -10 -2 -10 -5 0
-9 -9 -10 -21 -2 -17 1 -18 12 -9 8 7 13 16 10 20 -4 7 17 7 35 0 3 -1 8 -2
12 -1 4 0 5 -7 2 -17 -4 -10 -2 -13 3 -7 10 12 33 18 32 8 -3 -20 2 -34 11
-28 6 4 7 13 1 23 -9 18 -11 24 -11 45 0 8 -4 7 -10 -3 -5 -8 -10 -11 -10 -6
0 5 -6 3 -14 -3 -10 -9 -15 -8 -19 4 -4 8 -12 12 -20 9 -8 -3 -20 2 -27 11
-18 22 -40 19 -35 -6z m135 -25 c0 -8 -19 -13 -24 -6 -3 5 1 9 9 9 8 0 15 -2
15 -3z m-310 -84 c0 -5 -5 -10 -11 -10 -5 0 -7 5 -4 10 3 6 8 10 11 10 2 0 4
-4 4 -10z"/>
<path d="M3731 1777 c-6 -8 -8 -17 -4 -20 11 -12 19 -7 20 13 2 24 -1 25 -16
7z"/>
<path d="M3765 1780 c3 -5 0 -10 -7 -10 -9 0 -9 -3 2 -10 19 -12 33 -13 25 -1
-3 5 0 13 6 17 7 4 9 3 5 -4 -3 -6 -2 -14 4 -17 8 -5 7 -11 -1 -21 -6 -8 -9
-17 -5 -21 3 -4 13 2 20 13 11 14 11 21 3 26 -7 4 -8 8 -2 8 5 0 4 5 -3 12
-15 15 -56 22 -47 8z"/>
<path d="M3995 1771 c-4 -7 1 -18 11 -26 12 -9 21 -10 25 -3 4 7 9 7 13 0 8
-14 46 -11 46 3 1 5 7 -1 14 -14 8 -15 16 -20 20 -12 4 6 2 11 -3 11 -6 0 -11
5 -11 11 0 8 4 8 14 0 12 -10 13 -8 9 9 -3 13 -10 17 -17 12 -10 -7 -28 -8
-41 -2 -13 6 -31 5 -42 -2 -7 -6 -15 -3 -21 8 -7 12 -11 13 -17 5z m75 -17 c0
-8 -19 -13 -24 -6 -3 5 1 9 9 9 8 0 15 -2 15 -3z"/>
<path d="M3263 1762 c4 -5 -5 -14 -18 -20 -30 -14 -32 -28 -6 -42 22 -11 54
-3 45 12 -4 5 -10 5 -18 -1 -13 -11 -45 4 -33 16 5 4 11 2 15 -4 5 -8 12 -8
25 2 11 8 14 15 7 18 -6 3 -5 4 2 3 7 -2 13 -14 12 -29 -1 -19 3 -25 17 -24
24 2 32 23 18 48 -9 18 -8 19 9 10 12 -6 22 -7 29 0 6 6 9 -6 8 -36 -1 -25 2
-45 6 -45 14 0 20 18 9 25 -8 5 -6 14 4 30 12 18 13 25 3 32 -14 11 -66 11
-84 0 -7 -4 -22 -3 -34 4 -12 6 -19 7 -16 1z m67 -42 c0 -5 -4 -10 -10 -10 -5
0 -10 5 -10 10 0 6 5 10 10 10 6 0 10 -4 10 -10z"/>
<path d="M3691 1753 c-5 -11 -6 -25 -1 -33 5 -8 6 -18 4 -22 -3 -4 1 -8 8 -8
9 -1 7 -5 -4 -14 -10 -7 -14 -17 -10 -22 4 -4 -1 -3 -10 5 -13 9 -21 10 -35 2
-13 -8 -14 -11 -3 -9 8 1 29 -6 47 -15 20 -11 34 -13 38 -7 4 6 1 9 -5 8 -7
-2 -14 5 -15 15 -2 9 0 15 4 12 7 -4 7 40 1 55 -1 3 -2 9 -1 13 1 5 -4 5 -10
1 -8 -4 -9 -3 -5 4 4 6 14 8 23 5 11 -4 13 -8 5 -11 -13 -4 -7 -22 7 -22 14 0
8 30 -10 46 -16 14 -18 14 -28 -3z"/>
<path d="M3909 1736 c-25 -41 -24 -42 11 -42 17 0 29 4 27 10 -2 6 -12 10 -22
8 -11 -2 -15 2 -13 10 3 7 13 11 23 10 16 -3 17 -1 6 11 -10 13 -9 15 6 12 10
-1 17 -8 15 -14 -1 -7 3 -11 10 -10 25 3 38 -1 38 -12 0 -8 -4 -8 -14 0 -9 7
-17 8 -20 3 -8 -13 13 -20 47 -17 15 2 27 -1 27 -6 0 -6 4 -8 8 -5 12 7 38
-12 29 -21 -5 -4 -12 -1 -17 7 -6 9 -10 10 -10 3 0 -16 15 -24 33 -17 15 6 17
48 2 62 -5 4 -5 -1 -2 -10 4 -12 2 -15 -8 -11 -8 3 -12 10 -8 17 4 6 -1 5 -10
-3 -13 -10 -17 -10 -17 -1 0 7 -6 10 -14 7 -8 -3 -25 4 -38 16 -36 33 -66 30
-89 -7z"/>
<path d="M4149 1763 c-1 -5 -1 -12 0 -16 1 -5 -9 -23 -21 -40 -13 -18 -22 -33
-20 -34 1 -2 2 -7 2 -11 0 -11 -39 -12 -45 -1 -9 14 -23 11 -21 -6 3 -19 16
-32 16 -15 0 9 3 10 14 1 11 -9 15 -9 19 1 4 10 6 10 6 -1 1 -11 4 -11 16 -1
8 7 12 17 8 23 -4 6 -1 7 7 2 9 -6 11 -4 6 6 -4 8 0 5 10 -6 12 -14 15 -16 11
-4 -3 9 0 23 6 30 8 8 5 8 -7 -1 -16 -12 -18 -13 -11 -1 6 10 4 12 -6 6 -8 -5
-11 -4 -6 1 5 5 13 10 18 10 5 1 14 2 19 3 6 0 10 5 10 11 0 5 -8 7 -17 4 -11
-4 -14 -2 -8 3 14 11 18 43 5 43 -5 0 -11 -3 -11 -7z"/>
<path d="M4311 1763 c4 -23 -4 -30 -28 -29 -16 0 -31 5 -35 11 -5 6 -11 6 -20
-3 -13 -13 -29 -16 -25 -4 2 8 -6 12 -24 12 -8 0 -8 -4 0 -14 13 -15 11 -37
-4 -48 -5 -4 -10 -15 -10 -25 0 -10 -6 -17 -13 -15 -7 1 -20 -5 -28 -13 -9 -8
-19 -13 -24 -10 -5 3 -8 -4 -7 -15 1 -11 6 -18 12 -16 5 2 9 8 8 14 -2 6 7 9
18 7 15 -3 19 0 15 10 -3 9 0 12 10 8 7 -3 14 0 14 7 0 6 5 8 12 4 6 -4 8 -3
4 4 -3 6 -2 13 4 17 6 4 8 10 5 15 -3 5 4 7 15 5 14 -3 20 0 17 8 -2 7 -13 11
-23 9 -18 -3 -18 -3 1 12 17 12 22 13 34 1 12 -11 18 -11 40 2 21 12 22 12 9
0 -23 -18 -23 -22 3 -24 12 -1 19 1 16 4 -4 3 0 18 8 34 18 33 18 39 5 39 -5
0 -9 -3 -9 -7z m-46 -35 c5 4 5 1 1 -6 -6 -10 -11 -10 -22 -1 -8 6 -14 14 -14
16 0 3 6 0 13 -6 8 -6 18 -7 22 -3z"/>
<path d="M5285 1754 c-11 -8 -19 -21 -17 -28 4 -20 -28 -29 -35 -10 -3 8 -12
13 -19 10 -8 -3 -19 4 -25 15 -10 20 -12 20 -30 3 -10 -9 -16 -21 -13 -25 3
-5 0 -9 -7 -9 -16 0 -3 -13 16 -16 18 -3 19 8 3 24 -9 9 -9 12 0 12 7 0 12 -6
12 -12 0 -9 4 -8 11 2 8 12 9 9 4 -10 -5 -19 -4 -22 4 -10 10 13 12 13 21 0 8
-13 10 -13 10 -1 0 11 4 10 13 -4 9 -12 16 -14 21 -7 8 13 36 5 36 -10 0 -5
-4 -7 -9 -4 -5 3 -14 0 -20 -7 -8 -11 -5 -14 18 -14 32 0 36 21 8 41 -14 11
-14 13 3 24 10 6 18 21 17 32 -1 11 -1 20 -2 20 0 0 -9 -7 -20 -16z m15 -20
c0 -8 -19 -13 -24 -6 -3 5 1 9 9 9 8 0 15 -2 15 -3z"/>
<path d="M2175 1749 c-3 -4 -2 -14 1 -23 5 -14 9 -14 22 -4 13 11 14 11 7 -1
-5 -10 -4 -12 4 -7 8 6 9 12 2 20 -6 7 -9 15 -6 18 3 2 -2 5 -10 5 -9 0 -18
-4 -20 -8z"/>
<path d="M2960 1746 c6 -6 10 -17 10 -25 0 -13 -2 -13 -9 -3 -7 11 -9 11 -14
-1 -3 -8 2 -25 11 -38 l16 -24 -22 19 c-12 11 -22 16 -22 11 0 -4 -7 -2 -15 5
-8 7 -15 9 -15 4 0 -5 -4 -3 -9 5 -13 20 -71 23 -63 3 4 -11 1 -14 -9 -10 -9
4 -21 -2 -28 -13 -6 -11 -15 -17 -20 -14 -5 2 -14 -2 -21 -10 -9 -11 -16 -12
-25 -5 -9 8 -15 8 -20 0 -4 -7 -12 -7 -25 0 -10 5 -22 10 -27 10 -4 -1 3 -7
16 -14 14 -8 32 -13 40 -11 9 1 19 -3 23 -8 9 -15 40 -18 35 -4 -3 7 -11 11
-18 9 -12 -3 -12 -1 0 10 11 11 14 11 19 -1 3 -10 8 -7 18 10 7 13 13 18 14
10 0 -8 8 -3 20 12 14 17 26 24 37 20 12 -5 14 -3 8 7 -5 9 -4 11 4 6 6 -4 8
-12 5 -18 -5 -7 -2 -8 6 -3 9 6 11 4 5 -5 -5 -8 -4 -11 3 -6 6 3 13 2 17 -4 4
-6 11 -8 16 -5 5 4 9 2 9 -3 0 -5 10 -9 23 -8 17 1 22 7 21 29 -1 15 3 27 8
27 5 0 6 6 2 13 -5 8 -2 8 9 -2 9 -7 17 -12 18 -10 8 38 4 45 -28 45 -21 0
-29 -4 -23 -10z"/>
<path d="M4795 1749 c-4 -6 -14 -8 -24 -5 -12 5 -11 2 3 -9 11 -8 25 -15 30
-14 6 0 5 3 -2 6 -10 4 -10 8 -1 19 6 8 9 14 6 14 -3 0 -9 -5 -12 -11z"/>
<path d="M4880 1746 c6 -6 10 -17 10 -25 0 -13 -2 -13 -9 -3 -7 11 -9 11 -14
-1 -3 -8 2 -25 11 -38 l16 -24 -22 19 c-12 11 -22 16 -22 11 0 -4 -7 -2 -15 5
-8 7 -15 9 -15 4 0 -5 -4 -3 -9 5 -13 20 -71 23 -63 3 4 -11 1 -14 -9 -10 -9
4 -21 -2 -28 -13 -6 -11 -15 -17 -20 -14 -5 2 -14 -2 -21 -10 -9 -11 -16 -12
-25 -5 -9 8 -15 8 -20 0 -4 -7 -12 -7 -25 0 -10 5 -22 10 -27 10 -4 -1 3 -7
16 -14 14 -8 32 -13 40 -11 9 1 19 -3 23 -8 9 -15 40 -18 35 -4 -3 7 -11 11
-18 9 -12 -3 -12 -1 0 10 11 11 14 11 19 -1 3 -10 8 -7 18 10 7 13 13 18 14
10 0 -8 8 -3 20 12 14 17 26 24 37 20 12 -5 14 -3 8 7 -5 9 -4 11 4 6 6 -4 8
-12 5 -18 -5 -7 -2 -8 6 -3 9 6 11 4 5 -5 -5 -8 -4 -11 3 -6 6 3 13 2 17 -4 4
-6 11 -8 16 -5 5 4 9 2 9 -3 0 -5 10 -9 23 -8 17 1 22 7 21 29 -1 15 3 27 8
27 5 0 6 6 2 13 -5 8 -2 8 9 -2 9 -7 17 -12 18 -10 8 38 4 45 -28 45 -21 0
-29 -4 -23 -10z"/>
<path d="M3761 1739 c11 -7 11 -9 -3 -9 -9 0 -15 -7 -14 -15 3 -22 16 -31 25
-16 6 9 11 10 15 2 4 -6 3 -11 -1 -11 -5 0 -9 -8 -10 -18 -1 -14 6 -18 27 -18
21 0 28 4 27 18 -1 10 -5 18 -10 18 -4 0 -5 5 -2 10 4 6 12 10 18 9 26 -3 38
2 31 13 -4 7 -3 8 4 4 9 -5 9 -13 2 -27 -6 -11 -15 -17 -20 -14 -5 3 -12 0
-16 -6 -5 -9 0 -10 14 -7 14 4 20 2 15 -4 -4 -7 -1 -8 7 -3 8 5 11 4 7 -2 -4
-6 0 -17 9 -24 14 -11 15 -10 12 7 -2 11 2 18 10 16 7 -1 22 3 33 9 19 9 19 9
10 -10 -15 -28 -14 -36 4 -21 8 7 12 17 8 23 -4 6 -1 7 7 2 7 -5 11 -4 8 1 -4
5 6 9 21 9 16 0 28 -6 28 -12 0 -7 -4 -13 -9 -13 -5 0 -7 -4 -3 -9 3 -5 -1
-16 -9 -24 -8 -8 -12 -17 -9 -20 3 -4 14 4 25 16 11 12 17 16 13 9 -4 -7 -1
-11 7 -10 7 2 12 -3 11 -9 -3 -15 6 -16 27 -3 11 7 11 10 2 10 -8 0 -10 5 -6
12 5 7 2 9 -9 5 -8 -3 -21 1 -29 10 -13 17 -13 20 4 41 11 12 9 13 -44 15 -13
1 -29 10 -35 21 -13 21 -13 21 -10 -1 1 -12 -2 -22 -7 -22 -5 1 -13 -5 -17
-13 -7 -11 -11 -10 -19 2 -6 10 -10 11 -10 3 0 -7 -4 -13 -9 -13 -5 0 -8 15
-5 34 4 35 -5 40 -34 22 -7 -4 -16 -5 -19 -2 -3 3 -12 -2 -18 -11 -11 -15 -15
-15 -29 -4 -14 12 -15 15 -1 25 13 9 11 11 -11 13 -19 1 -23 -1 -13 -8z m49
-59 c0 -5 -5 -10 -11 -10 -5 0 -7 5 -4 10 3 6 8 10 11 10 2 0 4 -4 4 -10z"/>
<path d="M1780 1725 c-7 -8 -17 -12 -23 -8 -6 3 -7 1 -3 -6 4 -6 13 -9 19 -5
7 3 3 -2 -7 -10 -22 -18 -14 -21 14 -6 11 6 17 17 14 25 -4 8 -1 15 6 15 6 0
8 -4 5 -10 -6 -9 8 -14 28 -11 5 1 6 -3 2 -9 -3 -5 -1 -10 4 -10 6 0 11 5 11
11 0 5 5 7 11 3 6 -3 7 -9 3 -13 -5 -3 -10 -13 -12 -22 -1 -11 6 -15 28 -15
21 0 29 4 26 12 -8 21 48 43 60 23 3 -5 0 -8 -8 -7 -7 2 -12 -3 -10 -10 1 -8
-2 -11 -7 -8 -5 3 -14 -1 -21 -9 -18 -21 3 -19 30 3 13 10 24 32 26 48 2 18 0
24 -5 15 -6 -10 -10 -10 -16 -1 -5 8 -13 5 -26 -9 -20 -21 -45 -29 -34 -11 3
5 0 7 -9 4 -9 -3 -19 3 -27 17 -11 21 -13 21 -24 6 -11 -15 -13 -16 -19 -2 -7
19 -20 19 -36 0z m110 -45 c0 -5 -5 -10 -11 -10 -5 0 -7 5 -4 10 3 6 8 10 11
10 2 0 4 -4 4 -10z"/>
<path d="M2143 1732 c-6 -4 -11 -16 -10 -27 1 -13 -4 -20 -18 -20 -11 0 -26
-4 -32 -8 -8 -5 -13 -3 -13 4 0 12 -15 3 -15 -9 -1 -17 -17 -31 -30 -26 -8 4
-12 11 -9 16 4 6 -3 5 -15 -1 -11 -7 -21 -17 -21 -24 0 -8 -4 -6 -10 3 -9 13
-11 13 -20 0 -5 -8 -10 -11 -10 -6 0 5 -6 3 -14 -3 -11 -9 -15 -8 -20 5 -5 13
-9 14 -21 4 -12 -10 -15 -10 -15 1 0 12 -2 12 -9 1 -7 -11 -10 -10 -15 3 -3 9
-4 20 -1 24 2 5 -6 13 -20 19 -18 8 -26 8 -35 -4 -7 -8 -19 -14 -26 -14 -8 0
-14 -5 -14 -11 0 -5 -5 -7 -11 -3 -8 4 -8 0 0 -15 7 -11 17 -21 24 -21 7 0 6
-4 -3 -10 -8 -5 -11 -10 -6 -10 6 0 2 -6 -9 -13 -13 -10 -15 -16 -6 -21 6 -4
9 -11 6 -16 -3 -5 0 -12 6 -16 8 -4 9 -3 5 4 -4 7 -2 12 5 12 8 0 9 3 0 13
-12 15 -6 27 12 23 7 -2 9 -1 5 1 -5 3 -8 10 -8 16 0 8 4 7 12 -1 15 -15 28
-16 28 -2 0 6 -6 10 -14 10 -8 0 -18 5 -22 12 -5 8 -2 9 9 5 9 -3 19 -2 22 4
4 5 1 8 -5 7 -7 -2 -14 5 -15 14 -2 12 3 15 16 13 11 -2 17 0 14 6 -4 5 -4 9
-1 9 3 0 10 -9 16 -20 8 -15 8 -18 -3 -15 -8 4 -13 -3 -14 -16 -1 -14 2 -18
10 -11 13 10 47 12 47 3 0 -4 14 -7 30 -7 17 -1 30 3 30 10 0 6 5 4 10 -4 6
-10 10 -11 10 -2 0 6 5 12 12 12 9 0 9 -3 0 -12 -14 -14 -16 -28 -3 -28 5 0
12 10 16 23 4 13 8 17 12 10 5 -14 34 -18 32 -5 -3 18 2 24 14 14 8 -7 18 -7
27 -2 13 9 13 10 0 10 -13 0 -13 1 0 10 8 5 24 7 35 3 18 -5 19 -4 5 13 -14
17 -13 18 1 7 9 -7 19 -10 22 -6 4 3 7 1 7 -5 0 -9 5 -9 20 0 22 14 27 33 7
25 -15 -6 -17 27 -2 40 4 5 5 3 2 -3 -4 -7 0 -17 7 -23 12 -10 13 -8 9 9 -7
25 -15 31 -30 22z m-376 -87 c0 -8 -4 -15 -9 -15 -10 0 -11 14 -1 23 9 10 10
9 10 -8z m243 1 c0 -3 -4 -8 -10 -11 -5 -3 -10 -1 -10 4 0 6 5 11 10 11 6 0
10 -2 10 -4z"/>
<path d="M2360 1730 c8 -5 11 -10 6 -10 -6 0 -1 -7 10 -16 15 -12 16 -15 2
-10 -9 2 -22 -2 -28 -10 -7 -8 -20 -14 -29 -14 -14 0 -14 2 -1 10 13 9 13 10
0 10 -12 0 -12 2 -1 9 7 5 9 11 4 14 -5 3 -20 -4 -34 -16 -32 -29 -61 -34 -57
-10 2 12 -4 18 -19 19 -13 1 -23 -2 -23 -7 0 -5 -13 -22 -29 -38 -20 -20 -32
-26 -35 -18 -5 9 -7 9 -12 -1 -5 -10 -9 -10 -20 -1 -22 18 -23 7 -2 -13 10
-10 18 -13 18 -8 0 6 5 10 11 10 8 0 8 -4 0 -14 -7 -8 -8 -17 -3 -20 6 -3 12
4 16 17 5 18 8 20 16 7 9 -13 11 -13 20 0 5 8 8 20 5 27 -2 7 2 10 10 7 10 -4
13 0 10 16 -2 13 -2 20 2 16 3 -3 13 0 21 7 13 10 14 9 7 -3 -16 -26 -14 -39
6 -37 10 1 19 5 19 10 0 5 9 -1 20 -14 14 -17 19 -20 20 -9 0 13 1 13 11 0 8
-12 9 -9 5 10 -3 14 -3 19 0 12 3 -6 9 -10 13 -8 4 3 8 -1 8 -9 0 -8 -5 -15
-10 -15 -6 0 -8 -2 -5 -5 11 -12 36 8 33 25 -3 14 1 18 16 15 13 -3 17 0 14 8
-4 7 0 4 8 -6 8 -10 18 -14 21 -9 3 5 2 12 -1 16 -11 11 -12 36 -2 36 6 0 7 5
3 11 -5 8 -9 8 -14 -1 -5 -8 -9 -7 -13 4 -4 9 -12 16 -19 16 -9 0 -8 -3 2 -10z
m-62 -60 c-7 -11 -16 -20 -20 -20 -11 0 -10 9 5 25 18 21 29 18 15 -5z m-128
-24 c0 -3 -4 -8 -10 -11 -5 -3 -10 -1 -10 4 0 6 5 11 10 11 6 0 10 -2 10 -4z"/>
<path d="M2415 1710 c-14 -27 -14 -30 5 -40 11 -6 25 -8 30 -5 17 10 51 14 45
5 -6 -10 15 -8 32 3 9 6 11 3 6 -9 -4 -10 -2 -15 3 -11 6 3 16 1 24 -5 13 -8
12 -9 -2 -5 -9 3 -19 -1 -22 -9 -9 -23 -7 -27 7 -17 15 13 47 13 47 0 0 -5 6
-4 14 2 11 9 20 9 35 2 11 -6 27 -8 35 -5 9 3 16 2 16 -4 0 -6 8 -9 18 -7 9 1
26 -5 36 -14 16 -13 18 -13 12 -1 -5 9 -2 8 7 -2 16 -20 28 -14 20 10 -4 15
-3 15 7 2 9 -12 10 -11 5 9 -5 17 -4 22 6 19 8 -3 13 -14 11 -24 -2 -18 -2
-18 8 -1 6 9 9 21 5 26 -3 5 -1 13 5 16 6 4 10 3 9 -2 -4 -21 3 -22 31 -8 28
14 35 13 31 -8 -1 -5 4 -5 10 -1 6 3 15 0 20 -7 7 -12 9 -11 9 1 0 13 2 13 9
1 5 -8 16 -11 26 -8 9 4 13 12 9 18 -5 8 -3 9 7 3 8 -5 17 -9 22 -10 4 -1 10
-2 13 -3 4 0 1 -8 -6 -16 -15 -18 1 -20 18 -3 17 17 15 25 -10 33 -40 13 -63
11 -60 -5 1 -10 -2 -9 -13 4 -11 14 -15 16 -15 5 0 -12 -2 -12 -10 1 -5 8 -10
11 -10 6 0 -6 -7 -1 -15 10 -8 10 -15 15 -15 10 0 -4 -11 -1 -24 7 -20 13 -26
14 -35 3 -6 -7 -8 -16 -4 -19 6 -7 -11 -10 -23 -4 -3 1 -12 -10 -20 -25 -15
-28 -25 -30 -61 -10 -13 7 -23 10 -23 7 0 -3 -13 1 -29 10 -17 8 -38 12 -48 9
-15 -4 -14 -3 2 6 66 40 67 41 54 57 -12 13 -14 13 -26 -3 -7 -10 -13 -14 -13
-9 0 4 -9 0 -20 -10 -11 -10 -17 -21 -15 -26 3 -4 0 -11 -6 -15 -7 -4 -22 4
-36 20 -13 15 -27 25 -32 21 -5 -3 -12 -1 -16 5 -4 6 -11 8 -16 5 -5 -4 -9 -1
-9 6 0 7 -7 4 -15 -7 -8 -10 -15 -15 -15 -10 0 5 -8 2 -17 -5 -10 -8 -14 -9
-10 -2 4 6 3 14 -3 18 -7 4 -7 12 0 26 6 10 8 19 6 19 -3 0 -12 -13 -21 -30z
m239 -32 c-3 -4 -9 -8 -15 -8 -5 0 -9 4 -9 8 0 5 7 9 15 9 8 0 12 -4 9 -9z
m205 -12 c9 -10 7 -17 -6 -27 -9 -8 -14 -9 -10 -2 4 6 3 14 -3 18 -6 4 -8 11
-5 16 8 12 10 12 24 -5z"/>
<path d="M3152 1728 c-6 -6 -8 -16 -5 -23 5 -14 -13 -15 -34 -2 -9 6 -11 3 -7
-7 4 -10 0 -14 -13 -12 -10 2 -22 1 -28 -3 -5 -3 -14 -6 -20 -6 -16 0 -12 -29
5 -42 13 -10 12 -15 -9 -37 -14 -14 -28 -26 -32 -26 -9 0 -7 20 4 37 4 7 1 10
-10 8 -10 -1 -17 -8 -15 -14 3 -14 -4 -14 -30 0 -15 8 -19 8 -14 0 4 -6 2 -11
-4 -11 -6 0 -8 -5 -5 -10 5 -8 11 -8 19 -1 9 8 19 4 35 -12 16 -18 18 -24 7
-24 -8 0 -13 4 -11 8 3 4 -3 6 -12 4 -10 -1 -24 3 -32 9 -12 9 -13 8 -8 -6 4
-12 2 -15 -9 -11 -17 6 -19 23 -2 23 6 0 8 3 4 7 -4 5 -14 -1 -22 -11 -8 -11
-14 -15 -14 -10 0 6 5 15 12 22 7 7 8 12 3 12 -14 0 -36 -16 -38 -26 -1 -5 -6
-10 -12 -10 -5 -1 -14 -3 -20 -4 -5 -1 -13 -2 -17 -1 -5 0 -8 -3 -8 -7 0 -10
71 -9 88 2 6 4 12 3 12 -1 0 -5 24 -9 53 -8 33 1 52 5 52 13 0 7 5 11 10 10 6
-1 9 -8 7 -15 -4 -16 10 -17 26 -1 7 7 12 8 12 2 0 -6 23 -9 53 -9 39 2 51 6
49 16 -1 9 2 8 12 -4 12 -15 14 -15 19 -3 4 9 1 18 -5 22 -7 4 -6 9 3 15 8 5
10 9 4 9 -17 -1 -47 -28 -41 -38 3 -5 -1 -9 -9 -9 -10 0 -11 5 -5 17 9 17 4
30 -11 30 -4 0 -6 -9 -4 -19 4 -20 -9 -22 -34 -7 -11 7 -13 5 -8 -7 4 -11 2
-14 -9 -10 -17 6 -19 23 -2 23 6 0 8 3 4 7 -4 4 -17 -3 -28 -17 l-20 -25 16
27 c11 19 12 28 4 30 -9 3 -9 6 0 12 7 4 12 2 12 -3 0 -6 5 -11 10 -11 6 0 10
6 10 14 0 8 5 18 11 21 6 4 9 0 7 -10 -2 -10 4 -20 12 -22 12 -4 12 -3 2 5
-11 7 -9 10 7 15 30 8 18 47 -14 47 -7 0 -7 -3 0 -8 6 -4 11 -14 13 -22 2 -11
-1 -10 -12 3 -10 14 -15 15 -19 5 -4 -11 -6 -11 -6 0 -1 7 -5 10 -11 7 -5 -3
-10 -2 -10 4 0 14 18 23 22 11 2 -6 13 -2 25 9 20 19 22 19 27 3 3 -10 14 -18
24 -19 14 -1 18 6 18 28 0 20 -4 28 -12 25 -8 -3 -16 0 -20 6 -4 6 -3 8 4 4 6
-3 13 -2 16 3 9 14 -9 22 -22 9z m18 -48 c0 -5 -2 -10 -4 -10 -3 0 -8 5 -11
10 -3 6 -1 10 4 10 6 0 11 -4 11 -10z m-87 -63 c-3 -4 -6 -7 -7 -5 -1 2 -8 12
-16 22 -14 18 -14 18 7 6 12 -8 19 -18 16 -23z"/>
<path d="M3346 1714 c1 -13 -3 -25 -9 -25 -7 -1 -23 -3 -37 -4 -14 -1 -29 -3
-34 -4 -4 0 -1 -12 8 -25 9 -15 12 -26 5 -30 -5 -2 -4 -3 3 -2 19 4 20 22 3
40 -17 17 -9 21 13 7 8 -4 12 -12 10 -16 -1 -4 8 -10 22 -12 14 -1 21 0 15 4
-12 10 -18 33 -7 32 26 -4 34 1 22 16 -9 10 -9 15 -1 15 15 0 14 17 -3 23 -9
4 -12 -2 -10 -19z m-21 -43 c3 -5 2 -12 -3 -15 -5 -3 -9 1 -9 9 0 17 3 19 12
6z"/>
<path d="M3506 1715 c2 -24 -20 -42 -31 -25 -3 6 -15 6 -30 0 -14 -5 -25 -7
-25 -3 0 3 -8 -1 -19 -11 -10 -10 -25 -14 -35 -10 -13 5 -17 2 -14 -12 2 -13
-3 -19 -19 -20 -13 -1 -29 -7 -37 -13 -16 -13 -40 -6 -31 9 3 4 -1 20 -9 34
-11 22 -15 24 -25 12 -12 -14 -5 -46 9 -46 5 0 11 6 14 13 3 6 4 3 1 -9 -3
-12 1 -27 10 -34 13 -11 18 -10 30 6 15 18 15 18 8 -1 -6 -18 -5 -18 10 -6 9
7 14 18 10 25 -3 6 -2 7 3 3 5 -5 10 -13 10 -18 3 -19 4 -19 18 -7 10 10 11
15 2 21 -6 5 0 5 14 2 19 -5 21 -4 10 4 -8 5 -11 13 -7 18 5 4 12 1 17 -7 5
-8 12 -11 17 -7 4 5 1 13 -7 18 -12 9 -12 10 3 5 11 -3 20 0 24 9 4 13 8 13
21 3 13 -11 15 -11 8 2 -4 8 -1 7 7 -3 13 -16 15 -16 21 -2 3 9 10 13 16 10 9
-6 14 8 11 28 -1 5 3 6 9 2 6 -4 7 1 4 12 -5 14 -4 15 4 4 11 -15 -13 -65 -27
-56 -4 2 -8 -9 -8 -24 0 -21 5 -28 16 -26 9 2 18 4 21 4 3 1 -1 5 -9 10 -11 7
-10 14 8 40 12 17 20 35 17 39 -3 5 1 9 9 9 8 0 17 -7 19 -14 3 -8 10 -12 15
-8 5 3 12 1 16 -5 4 -6 11 -8 16 -5 5 4 9 1 9 -5 0 -7 -7 -10 -15 -7 -8 4 -17
2 -20 -2 -9 -15 20 -19 38 -6 17 12 25 41 8 31 -5 -4 -12 0 -14 6 -4 9 -6 8
-7 -2 0 -10 -6 -6 -15 10 -8 14 -14 19 -15 12 0 -8 -5 -10 -12 -5 -7 4 -17 8
-23 10 -5 1 -19 4 -31 7 -17 3 -21 0 -18 -19z m-261 -55 c3 -5 1 -10 -4 -10
-6 0 -11 5 -11 10 0 6 2 10 4 10 3 0 8 -4 11 -10z"/>
<path d="M5072 1728 c-6 -6 -8 -16 -5 -23 5 -14 -13 -15 -34 -2 -9 6 -11 3 -7
-7 4 -10 0 -14 -13 -12 -10 2 -22 1 -28 -3 -5 -3 -14 -6 -19 -6 -5 0 -10 -8
-12 -17 -3 -21 33 -20 41 1 5 12 8 12 14 3 5 -9 13 -7 28 8 20 18 22 19 27 2
3 -10 14 -18 24 -19 14 -1 18 6 18 28 0 20 -4 28 -12 25 -8 -3 -16 0 -20 6 -4
6 -3 8 4 4 6 -3 13 -2 16 3 9 14 -9 22 -22 9z m18 -48 c0 -5 -2 -10 -4 -10 -3
0 -8 5 -11 10 -3 6 -1 10 4 10 6 0 11 -4 11 -10z"/>
<path d="M3195 1721 c-3 -6 0 -11 7 -11 9 0 9 -3 -2 -10 -14 -9 -7 -14 15 -11
6 1 3 -4 -6 -11 -9 -7 -18 -17 -20 -23 -2 -5 -11 -10 -19 -10 -8 0 -15 -5 -15
-12 0 -6 -3 -15 -7 -19 -4 -4 -3 -13 3 -20 8 -10 16 -11 30 -3 27 14 37 5 33
-31 -3 -25 0 -29 16 -27 11 2 25 8 31 14 9 9 8 11 -2 10 -8 -2 -19 -6 -25 -9
-6 -4 -11 -1 -11 7 0 8 4 12 9 9 4 -3 11 2 14 11 6 14 8 14 19 -2 7 -9 10 -24
7 -33 -4 -12 -2 -13 8 -3 8 7 14 22 15 33 1 13 -2 17 -8 11 -6 -6 -19 1 -35
20 -13 17 -31 28 -38 25 -7 -3 -16 -1 -19 5 -4 5 -1 8 7 7 7 -2 12 3 10 11 -1
7 2 19 9 27 8 10 7 18 -4 34 -9 14 -17 17 -22 11z m-5 -101 c0 -14 -28 -31
-34 -21 -4 5 -2 12 4 16 6 4 8 11 5 16 -3 5 1 6 9 3 9 -3 16 -10 16 -14z m54
-32 c-3 -5 -12 -4 -20 3 -7 6 -11 15 -8 21 3 5 12 4 20 -3 7 -6 11 -15 8 -21z"/>
<path d="M5115 1720 c-3 -5 -1 -10 4 -10 6 0 11 5 11 10 0 6 -2 10 -4 10 -3 0
-8 -4 -11 -10z"/>
<path d="M4229 1707 c11 -14 11 -21 3 -29 -7 -7 -12 -8 -12 -4 0 5 -7 3 -15
-4 -11 -9 -12 -15 -2 -25 10 -11 14 -9 24 9 8 13 12 16 13 7 0 -11 4 -10 16 5
8 10 13 14 10 7 -5 -8 2 -10 19 -7 29 5 33 -7 8 -27 -14 -12 -16 -12 -8 0 5
10 4 12 -4 7 -21 -13 -1 -25 24 -14 13 6 22 15 19 19 -5 9 30 4 48 -7 7 -5 9
-2 4 7 -4 8 -1 6 7 -3 15 -19 28 -24 26 -10 -3 20 2 32 13 26 7 -4 8 -3 4 5
-4 6 -4 10 1 9 4 -2 9 2 11 7 1 6 -6 10 -15 10 -10 0 -18 -6 -18 -14 0 -8 -11
-15 -25 -16 -26 -3 -52 7 -51 18 3 19 0 27 -9 27 -5 0 -9 -5 -7 -12 4 -20 -42
-17 -71 6 -20 15 -23 16 -13 3z"/>
<path d="M4475 1711 c-3 -6 -11 -8 -17 -5 -7 5 -9 1 -5 -9 4 -10 -3 -23 -18
-36 -20 -15 -22 -20 -10 -25 8 -3 15 -2 15 3 0 4 11 21 25 37 20 22 24 24 19
9 -5 -17 -4 -17 5 -5 10 13 11 12 9 -4 -2 -10 2 -21 9 -23 15 -6 11 17 -9 45
-10 15 -18 19 -23 13z"/>
<path d="M4571 1703 c-6 -10 -11 -14 -11 -9 0 5 -9 1 -20 -9 -11 -10 -17 -21
-15 -26 11 -16 -17 -20 -35 -4 -17 15 -19 14 -39 -13 -19 -27 -19 -31 -4 -43
14 -12 15 -11 9 9 -7 22 7 31 19 12 5 -8 11 -7 21 1 11 9 14 9 14 -1 0 -10 3
-10 14 -1 11 9 20 9 35 2 11 -6 27 -8 35 -5 9 3 16 2 16 -4 0 -6 8 -9 18 -7 9
1 26 -5 36 -14 16 -13 18 -13 12 -1 -5 9 -2 8 7 -2 16 -20 28 -14 20 10 -4 15
-3 15 7 2 9 -12 10 -11 5 9 -5 17 -4 22 6 19 8 -3 13 -14 11 -24 -2 -18 -2
-18 8 -1 6 9 9 21 5 26 -3 5 -1 13 5 16 6 4 10 3 9 -2 -4 -21 3 -22 31 -8 28
14 35 13 31 -8 -1 -5 4 -5 10 -1 6 3 15 0 20 -7 7 -12 9 -11 9 1 0 13 2 13 9
1 11 -17 45 -6 35 11 -4 7 3 4 16 -7 13 -11 20 -14 15 -6 -6 10 -4 12 4 7 9
-6 9 -11 0 -22 -7 -9 -8 -14 -1 -14 6 0 17 9 25 21 l15 21 7 -21 c7 -24 25
-28 25 -7 0 8 5 18 11 21 6 4 9 0 7 -10 -2 -10 4 -20 12 -22 12 -4 12 -3 2 5
-11 7 -9 11 8 15 15 4 19 10 15 19 -6 10 -5 10 5 1 9 -8 19 -9 32 -2 10 5 24
7 30 3 7 -4 8 -3 4 4 -4 7 -2 12 5 12 8 0 7 5 -2 18 -13 16 -13 16 5 2 18 -13
19 -13 12 0 -4 8 -1 7 7 -3 8 -10 17 -14 20 -10 8 13 -6 29 -23 28 -8 -1 -21
3 -28 8 -7 6 -15 7 -19 3 -3 -3 -1 -6 7 -6 10 0 10 -3 0 -15 -10 -12 -10 -15
1 -15 11 -1 10 -3 -2 -10 -8 -5 -24 -7 -35 -5 -10 2 -23 4 -27 4 -5 1 -5 6 -1
12 5 8 1 8 -14 0 -11 -6 -23 -16 -25 -23 -4 -10 -6 -10 -6 0 -1 8 -6 10 -13 5
-20 -12 -49 -14 -62 -5 -19 14 -51 8 -48 -8 1 -10 -2 -9 -13 4 -11 14 -15 16
-15 5 0 -12 -2 -12 -10 1 -5 8 -10 11 -10 6 0 -6 -7 -1 -15 10 -8 10 -15 15
-15 10 0 -4 -11 -1 -24 7 -20 13 -26 14 -35 3 -6 -7 -8 -16 -4 -19 6 -7 -11
-10 -23 -4 -3 1 -12 -10 -20 -25 -15 -28 -25 -30 -61 -10 -13 7 -23 10 -23 7
0 -3 -13 1 -29 10 -17 8 -38 12 -48 9 -10 -3 -1 4 19 15 45 26 52 35 34 50
-11 10 -17 8 -25 -6z m3 -25 c-3 -4 -9 -8 -15 -8 -5 0 -9 4 -9 8 0 5 7 9 15 9
8 0 12 -4 9 -9z m205 -12 c9 -10 7 -17 -6 -27 -9 -8 -14 -9 -10 -2 4 6 3 14
-3 18 -6 4 -8 11 -5 16 8 12 10 12 24 -5z m-285 -38 c-3 -5 -12 -4 -20 3 -7 6
-11 15 -8 21 3 5 12 4 20 -3 7 -6 11 -15 8 -21z m553 7 c0 -8 -4 -12 -9 -9 -4
3 -8 9 -8 15 0 5 4 9 8 9 5 0 9 -7 9 -15z m-37 -9 c0 -3 -4 -8 -10 -11 -5 -3
-10 -1 -10 4 0 6 5 11 10 11 6 0 10 -2 10 -4z"/>
<path d="M3552 1688 c-7 -9 -7 -19 1 -33 11 -18 26 -25 67 -27 8 0 20 -5 26
-10 6 -4 20 -6 30 -2 14 4 15 3 5 -4 -9 -7 -10 -12 -2 -16 6 -4 11 -2 11 5 0
10 3 10 12 1 15 -15 28 -16 28 -2 0 6 -5 10 -10 10 -6 0 -22 8 -37 17 -30 20
-63 24 -63 9 0 -6 -5 -4 -10 4 -5 8 -10 11 -10 5 0 -5 -4 -3 -10 5 -6 9 -5 20
3 30 6 8 7 12 3 8 -5 -4 -15 -3 -21 2 -9 7 -16 6 -23 -2z m24 -24 c2 -12 -1
-13 -12 -3 -7 6 -11 16 -8 21 7 11 17 3 20 -18z"/>
<path d="M3725 1682 c1 -9 -2 -23 -8 -30 -8 -10 -7 -12 3 -10 13 3 21 -36 12
-60 -3 -9 -8 -10 -18 -1 -7 6 -17 8 -22 5 -5 -3 -19 2 -32 11 -13 10 -33 18
-45 20 -11 2 -28 5 -38 6 -9 2 -23 12 -31 22 -9 12 -15 15 -20 6 -4 -6 0 -14
8 -17 9 -3 16 -10 16 -16 0 -5 -4 -7 -9 -3 -6 3 -14 -3 -20 -13 -7 -14 -6 -19
4 -19 7 0 11 7 8 16 -2 10 1 8 9 -4 20 -30 47 -31 44 -1 -2 17 1 23 11 19 9
-4 10 -9 3 -18 -10 -12 -4 -25 12 -25 5 0 7 4 3 9 -3 5 -1 12 4 15 5 4 12 2
16 -4 4 -6 11 -7 17 -4 6 4 8 2 4 -4 -3 -6 -2 -13 4 -17 6 -4 8 -10 5 -15 -3
-5 0 -12 6 -16 8 -4 9 -3 5 4 -4 7 -2 12 5 12 8 0 8 4 1 13 -8 10 -6 13 11 14
12 1 17 -1 12 -5 -6 -4 -11 -14 -12 -23 -2 -11 6 -15 37 -15 22 1 40 5 40 10
0 5 8 2 17 -5 9 -8 14 -9 10 -2 -4 6 -1 13 5 16 7 2 9 8 5 13 -4 5 -12 2 -17
-6 -9 -13 -10 -13 -10 0 0 12 -2 12 -9 2 -6 -11 -10 -10 -16 5 -15 35 -11 58
13 59 12 1 22 -2 22 -6 0 -11 30 -6 38 6 13 17 32 15 25 -4 -6 -15 -5 -15 10
-3 17 13 18 12 21 -11 0 -6 7 -13 15 -16 8 -3 11 0 8 5 -3 5 3 9 13 9 10 0 16
-4 13 -9 -3 -5 0 -7 8 -5 8 3 13 10 12 15 -1 5 4 10 11 10 7 0 13 -6 13 -13 0
-7 -4 -11 -8 -8 -4 2 -10 0 -14 -6 -5 -9 7 -14 27 -11 4 0 4 -7 1 -16 -4 -11
-8 -13 -11 -5 -2 7 -8 12 -13 12 -5 0 -8 -3 -6 -7 1 -5 -2 -8 -8 -8 -5 0 -9 3
-7 8 1 4 -5 7 -14 7 -8 0 -12 -4 -9 -10 4 -6 -1 -7 -11 -3 -12 5 -15 3 -9 -6
5 -10 3 -11 -11 -4 -27 13 -67 10 -72 -5 -4 -13 24 -12 46 1 6 5 12 4 12 0 0
-11 90 -10 107 0 6 4 13 1 16 -5 3 -10 7 -10 20 1 10 7 17 9 17 4 0 -11 90
-11 108 1 6 4 12 3 12 -1 0 -11 71 -11 88 0 6 5 12 4 12 0 0 -13 79 -10 84 3
4 12 -43 12 -62 0 -7 -4 -15 -1 -18 9 -6 13 -8 14 -15 3 -7 -10 -9 -10 -10 0
-1 6 -3 17 -4 22 -1 6 -3 15 -4 21 0 5 -6 7 -11 4 -7 -4 -7 -12 0 -25 13 -24
13 -30 -1 -30 -5 0 -7 5 -4 10 3 6 1 10 -4 10 -6 0 -11 -4 -11 -8 0 -4 -9 -8
-21 -9 -15 -1 -19 2 -15 15 6 16 5 16 -7 1 -10 -14 -14 -14 -25 -3 -13 14 -5
19 21 15 4 0 7 5 7 11 0 9 3 8 9 -2 6 -8 7 -18 5 -22 -3 -4 2 -5 10 -2 9 3 13
11 9 18 -14 22 -11 34 8 31 10 -2 19 0 19 5 0 19 -19 19 -42 0 -14 -11 -27
-17 -30 -15 -3 3 -13 -4 -23 -15 -10 -11 -24 -20 -32 -20 -8 0 -11 -4 -8 -10
4 -6 -1 -7 -11 -3 -12 5 -15 3 -9 -6 6 -10 3 -11 -11 -3 -11 5 -27 8 -36 7
-10 -2 -18 1 -18 7 0 6 7 7 16 4 8 -3 13 -2 10 2 -2 4 5 9 17 9 17 2 19 0 7
-7 -24 -16 3 -11 30 5 l25 15 -25 -3 c-14 -1 -24 3 -23 9 1 6 -4 11 -12 11 -8
0 -12 -4 -10 -8 4 -6 -17 -19 -30 -19 -13 0 -11 33 3 47 16 16 16 16 -3 10
-20 -7 -20 -7 -1 8 11 8 15 15 9 15 -5 0 -20 -9 -33 -20 -23 -20 -45 -18 -37
4 3 6 -3 12 -13 12 -10 0 -16 -4 -14 -8 13 -21 -10 -27 -33 -8 -20 15 -29 17
-39 9 -8 -6 -14 -8 -14 -4 0 4 -7 2 -15 -5 -12 -10 -15 -10 -15 1 0 12 -2 12
-9 1 -7 -11 -10 -10 -15 3 -3 9 -4 20 -1 24 2 5 -6 13 -19 19 -20 9 -24 8 -21
-6z m25 -22 c8 -15 8 -18 -3 -14 -8 3 -14 11 -14 19 0 20 4 19 17 -5z m180
-40 c0 -5 -4 -10 -10 -10 -5 0 -10 5 -10 10 0 6 5 10 10 10 6 0 10 -4 10 -10z
m-360 -20 c0 -5 -2 -10 -4 -10 -3 0 -8 5 -11 10 -3 6 -1 10 4 10 6 0 11 -4 11
-10z m141 -53 c-10 -9 -11 -8 -5 6 3 10 9 15 12 12 3 -3 0 -11 -7 -18z m34 13
c3 -5 1 -10 -4 -10 -6 0 -11 5 -11 10 0 6 2 10 4 10 3 0 8 -4 11 -10z m374 -4
c11 -14 6 -15 -27 -7 -4 1 8 21 12 21 2 0 9 -6 15 -14z"/>
<path d="M1920 1680 c-9 -6 -10 -10 -3 -10 6 0 15 5 18 10 8 12 4 12 -15 0z"/>
<path d="M5190 1680 c0 -5 5 -10 10 -10 6 0 10 5 10 10 0 6 -4 10 -10 10 -5 0
-10 -4 -10 -10z"/>
<path d="M5202 1664 c-21 -20 -22 -54 -2 -54 11 0 21 30 15 41 -4 5 1 6 10 3
13 -5 13 -9 3 -22 -11 -13 -11 -15 2 -8 8 4 6 0 -4 -8 -11 -9 -15 -16 -9 -16
7 0 15 5 18 10 4 6 11 8 16 5 5 -4 5 3 0 18 -7 18 -5 29 7 43 13 14 14 15 1 6
-8 -6 -20 -8 -25 -4 -5 5 -19 -1 -32 -14z m8 -18 c0 -3 -4 -8 -10 -11 -5 -3
-10 -1 -10 4 0 6 5 11 10 11 6 0 10 -2 10 -4z"/>
<path d="M2470 1663 c0 -5 -13 -10 -30 -11 -16 -1 -36 -2 -42 -3 -7 -1 -20 0
-28 2 -8 2 -15 -2 -16 -8 -1 -7 -2 -17 -3 -21 -1 -12 -33 -11 -48 1 -9 6 -13
5 -13 -4 -1 -9 -6 -7 -16 6 -8 11 -27 20 -42 20 -30 0 -54 -13 -47 -25 7 -11
-24 -22 -37 -13 -6 3 -8 1 -5 -4 10 -16 -25 -26 -35 -11 -5 7 -13 20 -18 28
-6 10 -12 11 -17 5 -9 -12 -23 -13 -40 -2 -10 6 -11 2 -4 -32 1 -2 9 3 18 10
11 10 14 10 9 2 -9 -16 6 -17 21 -2 8 8 13 7 18 -2 5 -7 4 -10 -3 -5 -6 3 -13
2 -17 -4 -6 -9 8 -14 28 -11 4 1 3 -8 -3 -19 -12 -23 -22 -27 -14 -5 4 8 2 15
-3 15 -5 0 -9 -9 -10 -20 -2 -23 7 -26 25 -8 7 7 12 8 12 2 0 -12 89 -12 108
0 6 4 12 3 12 -2 0 -5 14 -9 30 -8 17 0 30 5 30 10 0 4 8 2 17 -5 9 -8 14 -9
10 -3 -4 7 0 14 8 17 8 4 12 1 9 -7 -3 -8 7 -12 36 -12 22 1 40 5 40 10 0 5 8
2 17 -5 11 -10 14 -10 9 -1 -4 6 -2 12 3 12 6 0 11 4 11 8 0 5 -7 9 -15 9 -8
0 -12 -4 -9 -9 9 -14 -20 -4 -32 11 -6 8 -10 25 -8 38 2 19 -1 23 -14 18 -13
-5 -14 -3 -6 5 9 9 17 9 34 0 18 -10 21 -10 14 2 -5 8 1 7 19 -4 30 -21 47
-24 29 -6 -7 7 -12 17 -12 23 0 5 5 3 10 -5 7 -10 10 -11 10 -2 0 9 6 9 23 -3
23 -15 37 -12 37 9 0 6 -5 4 -10 -4 -8 -13 -10 -12 -10 4 0 11 -3 16 -7 13 -3
-4 -12 -2 -20 4 -7 6 -13 7 -13 2z m-237 -40 c-3 -8 2 -11 16 -8 11 2 23 -1
26 -6 4 -5 11 -7 16 -4 5 4 12 -1 16 -11 6 -16 7 -16 19 0 11 16 13 16 19 -3
3 -12 10 -19 14 -17 11 7 36 -12 27 -21 -5 -4 -11 -2 -13 5 -4 10 -9 8 -19 -5
-14 -17 -14 -17 -8 0 5 14 2 18 -12 15 -11 -2 -22 -7 -26 -13 -5 -6 -8 -4 -8
5 0 13 -1 13 -11 0 -8 -12 -9 -10 -4 8 6 21 5 22 -14 10 -12 -7 -16 -15 -10
-19 7 -4 5 -9 -5 -12 -8 -3 -18 -2 -21 4 -4 5 -12 6 -18 2 -18 -11 -36 -12
-43 -2 -3 5 -10 7 -15 4 -5 -4 -9 -1 -9 4 0 6 6 11 13 11 9 0 9 2 -1 8 -9 6
-6 12 13 20 14 6 25 15 24 19 -3 15 1 19 20 19 11 0 17 -6 14 -13z m137 -23
c0 -5 -5 -10 -11 -10 -5 0 -7 5 -4 10 3 6 8 10 11 10 2 0 4 -4 4 -10z m-234
-39 c0 -11 -5 -17 -13 -14 -17 6 -17 20 0 26 6 3 12 6 12 6 1 1 1 -7 1 -18z"/>
<path d="M2203 1623 c4 -6 -1 -18 -11 -25 -9 -7 -17 -18 -17 -25 0 -15 15 -30
15 -15 0 7 5 12 11 12 5 0 7 -6 3 -12 -5 -10 -4 -10 6 -1 10 10 17 10 27 1 8
-6 13 -7 12 -2 -3 18 1 34 9 32 4 -2 8 2 10 7 1 6 -6 10 -16 10 -11 0 -27 7
-37 15 -11 8 -16 10 -12 3z m14 -20 c-4 -3 1 -11 9 -18 15 -11 15 -12 0 -12
-9 0 -16 4 -16 9 0 5 -6 6 -12 2 -9 -5 -9 -2 1 9 7 9 16 17 19 17 3 0 2 -3 -1
-7z"/>
<path d="M3423 1646 c-14 -26 -80 -65 -91 -54 -11 11 -21 -1 -28 -35 -2 -16 1
-24 11 -24 8 0 15 5 15 10 0 5 8 3 17 -4 9 -8 14 -9 10 -2 -4 6 -1 13 5 16 7
2 9 8 5 13 -4 5 -11 4 -15 -2 -9 -13 -33 -12 -29 1 1 6 6 9 11 7 4 -1 14 3 22
9 11 9 14 8 14 -1 0 -8 3 -10 8 -6 4 4 7 13 7 19 0 7 6 13 13 13 6 1 17 2 23
3 5 0 7 5 4 11 -3 5 0 8 7 5 7 -3 20 0 28 5 13 9 13 11 0 20 -20 13 -28 12
-37 -4z m22 -6 c3 -5 1 -10 -4 -10 -6 0 -11 5 -11 10 0 6 2 10 4 10 3 0 8 -4
11 -10z"/>
<path d="M4256 1644 c-16 -16 -22 -39 -8 -30 4 2 8 -4 8 -15 0 -19 -1 -19 -13
-3 -7 10 -11 27 -8 38 5 19 5 19 -5 4 -7 -12 -8 -24 -1 -37 6 -10 7 -22 3 -26
-4 -5 -2 -5 5 -1 6 3 16 -2 22 -11 6 -10 11 -16 11 -13 7 31 7 40 -1 40 -5 0
-9 5 -9 11 0 8 4 8 13 0 10 -8 17 -7 25 1 8 8 12 9 12 1 0 -6 -7 -14 -16 -17
-23 -9 -8 -21 24 -21 15 0 27 -5 27 -12 0 -6 4 -15 9 -20 5 -5 6 -3 2 5 -4 7
-2 12 5 12 7 0 5 8 -6 20 -13 14 -21 17 -26 9 -4 -7 -9 -8 -13 -1 -3 6 0 13 6
15 10 4 9 8 -2 17 -13 10 -12 11 4 6 10 -4 24 -2 30 3 7 6 17 6 26 1 9 -6 10
-10 3 -10 -14 0 -10 -33 5 -38 7 -2 9 5 7 17 -2 12 0 21 6 21 5 0 9 -5 9 -11
0 -5 5 -7 11 -3 7 4 1 -7 -12 -25 -22 -30 -38 -43 -23 -19 4 7 3 8 -4 4 -23
-14 -12 -22 28 -22 22 1 40 5 40 10 0 5 8 2 17 -5 11 -10 14 -10 9 -1 -4 7 -2
12 4 12 6 0 8 5 5 10 -4 6 -1 9 6 8 6 -2 13 2 16 9 3 8 -3 11 -16 8 -13 -2
-18 1 -15 10 3 7 1 16 -4 19 -5 3 -8 -11 -5 -32 2 -27 1 -33 -7 -22 -9 13 -10
13 -10 0 0 -12 -2 -13 -9 -1 -7 11 -9 11 -13 0 -3 -8 -9 -10 -14 -6 -10 9 16
28 28 21 14 -9 8 13 -7 26 -8 7 -12 17 -8 23 4 6 0 8 -11 4 -9 -4 -30 -1 -44
7 -25 13 -30 12 -52 -5 -14 -10 -30 -19 -36 -19 -17 0 -24 26 -11 39 6 6 8 11
5 11 -4 0 -14 -7 -22 -16z"/>
<path d="M3475 1630 c-4 -11 -10 -18 -14 -16 -9 6 -37 -11 -30 -18 3 -3 15 -7
27 -9 31 -5 35 -12 15 -28 -11 -9 -14 -10 -9 -1 6 11 0 14 -20 11 -4 0 -10 5
-15 12 -4 7 -15 14 -24 15 -9 1 -14 0 -11 -3 3 -3 -1 -15 -9 -27 -21 -30 -19
-32 25 -32 35 1 39 3 34 21 -6 17 -3 16 15 -5 13 -14 20 -20 17 -14 -3 7 2 15
12 19 29 13 39 13 39 0 0 -7 -8 -12 -19 -10 -10 2 -18 0 -18 -4 0 -5 15 -8 34
-7 27 1 32 4 24 14 -8 9 -7 11 6 6 9 -3 16 -9 16 -13 0 -12 80 -7 84 6 3 6 -4
19 -14 28 -18 17 -19 17 -15 -4 4 -22 -9 -29 -20 -11 -5 8 -11 7 -21 -1 -8 -6
-14 -7 -14 -2 0 5 -6 10 -12 11 -40 3 -53 11 -51 28 1 11 0 13 -3 7 -11 -24
-23 -13 -19 17 5 34 -1 39 -10 10z m5 -26 c0 -8 -19 -13 -24 -6 -3 5 1 9 9 9
8 0 15 -2 15 -3z m-76 -39 c-9 -14 -18 -25 -21 -25 -5 0 5 18 20 38 17 22 18
13 1 -13z m26 -5 c0 -5 -5 -10 -11 -10 -5 0 -7 5 -4 10 3 6 8 10 11 10 2 0 4
-4 4 -10z"/>
<path d="M5147 1630 c-5 -19 14 -45 26 -34 3 3 14 1 24 -6 16 -10 16 -10 -4
-5 -18 5 -21 2 -19 -19 2 -17 -1 -23 -10 -19 -17 6 -18 23 -2 23 6 0 8 3 4 7
-4 4 -16 -3 -27 -17 -11 -14 -17 -18 -14 -9 5 13 0 17 -20 17 -16 0 -24 -5
-22 -13 3 -6 -1 -12 -8 -12 -10 0 -11 5 -5 17 5 10 6 21 2 25 -4 5 -1 5 7 0 9
-5 12 -4 7 3 -4 7 -2 10 7 6 16 -6 44 23 33 33 -4 4 -10 3 -14 -3 -4 -5 -15
-10 -24 -9 -10 0 -18 -4 -17 -9 1 -14 -23 -23 -56 -21 -46 4 -47 4 -39 18 4 6
-4 2 -18 -10 -29 -28 -36 -29 -34 -5 0 9 -3 17 -9 17 -5 0 -9 -3 -7 -7 3 -11
-6 -10 -30 3 -15 8 -19 8 -14 0 4 -6 2 -11 -4 -11 -6 0 -8 -5 -5 -10 5 -8 11
-8 19 -1 9 8 19 4 35 -12 16 -18 18 -24 7 -24 -8 0 -13 4 -11 8 3 4 -3 6 -12
4 -10 -1 -24 3 -32 9 -12 9 -13 8 -8 -6 4 -12 2 -15 -9 -11 -17 6 -19 23 -2
23 6 0 8 3 4 7 -4 5 -14 -1 -22 -11 -8 -11 -14 -15 -14 -10 0 6 5 15 12 22 7
7 8 12 3 12 -15 0 -37 -16 -36 -26 0 -5 -5 -10 -12 -10 -6 -1 -16 -3 -22 -4
-5 -1 -13 -2 -17 -1 -5 0 -8 -3 -8 -7 0 -10 71 -9 88 2 6 4 12 3 12 -1 0 -5
24 -9 53 -8 33 1 52 5 52 13 0 7 5 12 10 11 6 0 9 -7 7 -15 -4 -17 10 -18 26
-2 7 7 12 8 12 2 0 -6 23 -9 53 -9 28 1 51 6 50 12 -1 5 4 10 12 10 7 0 11 -6
8 -14 -6 -16 9 -17 25 -1 7 7 12 8 12 2 0 -15 95 -10 114 5 14 12 16 12 10 -3
-8 -20 9 -21 26 -1 17 21 4 38 -20 25 -15 -8 -21 -6 -30 11 -10 19 -10 20 9
10 23 -13 48 -6 48 14 0 10 -4 12 -12 5 -6 -5 -20 -7 -30 -6 -11 2 -25 -1 -32
-6 -12 -10 -61 10 -62 25 -1 4 -1 12 -1 17 0 18 -18 11 -23 -10z m20 -15 c0
-8 -4 -12 -9 -9 -5 3 -6 10 -3 15 9 13 12 11 12 -6z m69 -34 c-3 -5 1 -12 10
-15 20 -8 9 -25 -14 -21 -9 2 -19 4 -22 5 -3 1 -8 2 -12 1 -5 0 -8 4 -8 9 0
14 13 13 29 -2 11 -11 13 -10 8 4 -3 9 -3 19 0 22 9 9 15 7 9 -3z m-210 -14
c4 -4 12 -2 19 3 8 7 12 5 12 -4 0 -15 -14 -16 -36 -2 -11 7 -13 5 -8 -7 4
-11 2 -14 -9 -10 -7 3 -14 10 -14 16 0 6 -7 2 -16 -9 -15 -19 -15 -18 -5 2 9
20 42 26 57 11z m265 -20 c-10 -9 -11 -8 -5 6 3 10 9 15 12 12 3 -3 0 -11 -7
-18z"/>
<path d="M5266 1642 c-2 -4 -1 -14 4 -22 7 -11 11 -11 24 2 14 15 14 17 0 22
-20 8 -22 8 -28 -2z"/>
<path d="M2863 1621 c-18 -10 -29 -21 -25 -25 4 -4 7 -13 7 -18 0 -6 6 -12 13
-14 8 -2 9 -1 1 3 -8 4 -3 10 11 18 13 7 24 22 25 34 1 11 1 21 1 20 -1 0 -16
-8 -33 -18z m23 -13 c4 -7 3 -8 -4 -4 -7 4 -12 2 -12 -3 0 -6 -5 -11 -11 -11
-8 0 -8 5 1 15 15 18 17 18 26 3z"/>
<path d="M4783 1621 c-18 -10 -29 -21 -25 -25 4 -4 7 -13 7 -18 0 -6 6 -12 13
-14 8 -2 9 -1 1 3 -8 4 -3 10 11 18 13 7 24 22 25 34 1 11 1 21 1 20 -1 0 -16
-8 -33 -18z m23 -13 c4 -7 3 -8 -4 -4 -7 4 -12 2 -12 -3 0 -6 -5 -11 -11 -11
-8 0 -8 5 1 15 15 18 17 18 26 3z"/>
<path d="M2480 1621 c10 -7 11 -11 3 -11 -18 0 -16 -17 2 -24 17 -6 45 2 45
14 0 4 -8 10 -17 14 -10 3 -25 9 -33 12 -13 5 -13 4 0 -5z m25 -21 c3 -5 1
-10 -4 -10 -6 0 -11 5 -11 10 0 6 2 10 4 10 3 0 8 -4 11 -10z"/>
<path d="M1819 1596 c-8 -17 -18 -23 -36 -21 -16 1 -21 -1 -14 -8 5 -5 7 -15
5 -21 -3 -8 9 -12 36 -12 22 1 40 5 40 10 0 5 8 2 17 -5 9 -8 14 -9 10 -2 -4
6 -1 13 5 16 8 2 9 8 4 13 -5 5 -11 3 -14 -5 -4 -11 -6 -11 -13 0 -7 12 -9 12
-9 0 0 -11 -4 -10 -14 4 -21 29 -8 50 15 22 11 -13 18 -17 19 -9 0 7 4 11 9 7
5 -3 13 0 16 5 5 8 13 6 24 -4 10 -9 21 -13 25 -9 4 4 4 -1 0 -10 -6 -17 -8
-16 -21 3 -8 11 -19 18 -24 14 -6 -3 -3 -11 7 -18 13 -10 14 -15 4 -21 -9 -6
-11 -4 -5 5 5 9 4 11 -3 6 -7 -4 -12 -11 -12 -17 0 -10 28 -8 48 4 6 5 12 4
12 0 0 -11 96 -10 107 0 11 11 13 38 2 31 -5 -3 -9 0 -9 7 0 7 -3 10 -6 6 -4
-3 -20 1 -36 9 -17 9 -27 11 -24 6 3 -6 -1 -12 -9 -16 -17 -6 -47 3 -41 13 3
4 -15 6 -40 6 -24 -1 -44 2 -44 7 0 17 -21 7 -31 -16z m196 -23 c0 -6 3 -15 8
-19 4 -4 7 -2 7 5 0 7 5 11 11 9 14 -5 12 -23 -3 -24 -7 0 -19 4 -25 9 -7 5
-13 6 -13 2 0 -4 -8 -1 -17 6 -15 12 -16 12 -10 -3 4 -12 2 -15 -9 -11 -7 3
-14 9 -14 13 0 12 29 20 35 9 4 -5 11 -6 17 -3 6 4 5 10 -3 16 -11 8 -11 9 1
5 8 -2 15 -9 15 -14z m-224 -26 c-10 -9 -11 -8 -5 6 3 10 9 15 12 12 3 -3 0
-11 -7 -18z m34 13 c3 -5 1 -10 -4 -10 -6 0 -11 5 -11 10 0 6 2 10 4 10 3 0 8
-4 11 -10z"/>
<path d="M2398 1613 c10 -4 10 -8 1 -19 -12 -15 -9 -16 31 -18 19 -1 24 -6 23
-22 -2 -18 3 -21 35 -20 37 1 67 29 54 51 -3 5 4 2 15 -8 11 -9 23 -14 26 -10
10 9 9 25 -1 19 -12 -7 -38 12 -29 21 5 4 12 2 16 -6 5 -7 11 -12 15 -12 3 1
16 -9 28 -21 13 -13 16 -19 6 -16 -9 4 -21 1 -28 -5 -10 -9 -11 -9 -5 2 5 9 4
12 -3 7 -23 -14 -12 -22 28 -22 22 1 40 5 40 10 0 5 8 2 17 -5 11 -10 14 -10
9 -1 -4 7 -2 12 5 12 6 0 9 8 7 18 -3 11 0 19 8 19 8 0 14 -4 14 -9 0 -5 4 -7
8 -4 12 7 38 -12 28 -21 -5 -4 -11 -2 -13 5 -4 10 -9 8 -19 -5 -13 -17 -14
-17 -8 2 5 16 4 17 -5 5 -17 -23 -14 -26 29 -26 31 1 39 4 35 15 -4 10 2 8 16
-5 12 -10 19 -13 15 -6 -4 7 -2 12 4 12 7 0 10 7 6 18 -5 14 -4 14 9 -2 8 -11
15 -18 16 -15 0 2 2 12 4 21 4 20 -24 20 -48 0 -11 -10 -19 -8 -38 6 -13 10
-31 17 -39 17 -8 -1 -21 3 -28 9 -11 8 -13 5 -12 -9 1 -11 2 -27 1 -35 -1 -13
-2 -13 -11 0 -8 12 -10 12 -10 1 0 -8 -3 -12 -6 -9 -3 4 -1 16 6 27 9 18 8 23
-12 30 -13 5 -28 5 -33 0 -6 -4 -17 -4 -25 1 -22 14 -28 12 -42 -13 -16 -29
-57 -30 -79 -3 -8 10 -29 20 -45 21 -16 2 -23 1 -16 -2z m51 -17 c11 -14 6
-15 -27 -7 -4 1 8 21 12 21 2 0 9 -6 15 -14z m192 -3 c3 1 -1 -5 -9 -13 -11
-13 -14 -13 -22 0 -12 19 -2 34 14 21 7 -6 15 -10 17 -8z m-116 -35 c3 -3 -5
-5 -17 -4 -13 1 -30 -3 -38 -8 -13 -9 -13 -8 -3 5 12 15 46 19 58 7z"/>
<path d="M2910 1606 c0 -9 5 -16 10 -16 6 0 10 4 10 9 0 6 -4 13 -10 16 -5 3
-10 -1 -10 -9z"/>
<path d="M3755 1598 c1 -21 35 -36 35 -16 0 6 6 5 15 -2 22 -18 76 -20 105 -3
14 8 17 12 6 8 -22 -6 -49 13 -39 29 4 6 0 5 -9 -2 -11 -9 -18 -10 -23 -2 -3
6 -12 7 -18 3 -17 -11 -57 -12 -57 -1 0 4 -4 8 -8 8 -5 0 -8 -10 -7 -22z m95
-9 c10 -18 10 -19 -8 -10 -11 6 -22 8 -25 5 -3 -3 -8 0 -13 7 -4 7 -3 10 4 5
6 -3 13 -2 17 4 9 14 13 13 25 -11z"/>
<path d="M4351 1607 c-8 -11 -6 -18 11 -33 13 -10 18 -12 12 -4 -6 8 -10 23
-9 33 4 21 1 21 -14 4z"/>
<path d="M4525 1610 c-3 -5 -12 -7 -20 -3 -8 3 -15 0 -15 -7 0 -6 4 -9 9 -5
18 10 23 -16 7 -34 -23 -25 -21 -27 24 -27 22 1 40 5 40 10 0 5 8 2 17 -5 11
-10 14 -10 9 -1 -4 7 -2 12 5 12 6 0 9 8 7 18 -3 11 0 19 8 19 8 0 14 -4 14
-9 0 -5 4 -7 8 -4 12 7 38 -12 28 -21 -5 -4 -11 -2 -13 5 -4 10 -9 8 -19 -5
-13 -17 -14 -17 -8 2 5 16 4 17 -5 5 -17 -23 -14 -26 29 -26 31 1 39 4 35 15
-4 10 2 8 16 -5 12 -10 19 -13 15 -6 -4 7 -2 12 4 12 7 0 10 7 6 18 -5 14 -4
14 9 -2 8 -11 15 -18 16 -15 0 2 2 12 4 21 4 20 -24 20 -48 0 -11 -10 -19 -8
-38 6 -13 10 -31 17 -39 17 -8 -1 -21 4 -29 9 -12 9 -13 7 -9 -10 3 -12 2 -28
-3 -35 -7 -12 -9 -11 -9 1 0 13 -2 13 -11 0 -9 -12 -10 -11 -4 5 3 11 7 24 8
28 3 13 -41 28 -48 17z m36 -17 c3 1 -3 -5 -13 -15 -10 -9 -15 -18 -11 -21 5
-2 3 -3 -3 -1 -6 1 -18 -3 -25 -9 -7 -7 -6 -2 4 9 10 12 17 25 16 30 -3 20 2
26 14 15 8 -6 16 -10 18 -8z"/>
<path d="M4830 1606 c0 -9 5 -16 10 -16 6 0 10 4 10 9 0 6 -4 13 -10 16 -5 3
-10 -1 -10 -9z"/>
<path d="M4185 1601 c-3 -5 -2 -12 3 -15 5 -3 9 1 9 9 0 17 -3 19 -12 6z"/>
<path d="M5116 1591 c-15 -17 -15 -18 6 -16 23 2 35 19 20 29 -5 3 -17 -3 -26
-13z"/>
<path d="M3100 1575 c7 -8 17 -12 22 -9 6 4 5 10 -3 15 -22 14 -33 10 -19 -6z"/>
<path d="M2956 1572 c-3 -5 1 -9 9 -9 8 0 12 4 9 9 -3 4 -7 8 -9 8 -2 0 -6 -4
-9 -8z"/>
<path d="M4876 1572 c-3 -5 1 -9 9 -9 8 0 12 4 9 9 -3 4 -7 8 -9 8 -2 0 -6 -4
-9 -8z"/>
<path d="M2546 1555 c-3 -8 0 -17 6 -21 6 -4 8 -3 4 4 -3 5 -1 12 6 14 8 3 9
6 1 11 -6 4 -13 0 -17 -8z"/>
</g>
</svg>
