<svg xmlns="http://www.w3.org/2000/svg" version="1.0" viewBox="0 0 300 351">
  <path d="M79.05 16.8c-16.95 9.35-9.1 39.1 10.3 39.2 1.4 0 1.75.55 1.35 2.25-.3 1.25-1.35 6.95-2.3 12.75-1.45 8.8-2.25 11.05-4.7 13.95l-3 3.45.55 15.55c.3 8.55.7 16.2.9 17.05.3 1.2-.5 1.45-3.55 1.2-9.3-.75-11.65 1.95-8.15 9.5 2.5 5.4 3.85 6.3 9.15 6.3 2.65 0 3.4.4 3.4 1.9 0 1 .25 3.2.6 4.85.5 2.6.05 3.5-3.2 6.4-2.05 1.85-4.5 4.05-5.4 4.9-2.15 2.1-20.05 44-21.6 50.7-1.8 7.75-.4 12 4.65 14.1 2.75 1.15 3.75 2.1 3.35 3.15-1.2 3.15-5.3 24.45-5.95 30.95-.8 8.05-.45 8.45 10.9 12.15l6.85 2.25-.55 3.4c-1.1 6.9 3.7 9.05 22.65 9.95 13.9.7 12.45-.9 13.9 15.2 1.15 12.4 1.1 13.1-.75 15.2-5.2 5.85-17.45 8.5-26.6 5.75-6.75-2.05-7.9 2.85-1.75 7.2 5.65 4.05 15.65 2.3 25.55-4.45l3.85-2.65.55 2.3c.85 3.5 4.4 3 4.75-.75.65-6.55 5.35-33.8 6.25-36.1 1.05-2.85 10.95-3.75 10.95-1 0 2.85-6.2 35.1-7.05 36.7-1.1 2.05-.3 2.9 2.65 2.9 1.4 0 2.5-.8 2.9-2.05.4-1.15.95-1.9 1.35-1.7 15.05 8.05 28.25 7.5 33.65-1.5 2.3-3.95.2-4.35-5.9-1.25-7.25 3.7-19.6 2.5-23.95-2.3-1.75-1.95 3.05-16.85 9.6-29.75l2.6-5.05 17.1-2.8c23.95-3.95 21.45-2.55 20.7-11.5-1.25-14.7-7.65-55.75-10.55-67.6-3.5-14.35-4.05-13.5 5.65-8.6 16.7 8.4 26.95 10.3 29.15 5.4 2.2-4.8 5.25-21.6 5.8-32.15l.6-10.35 3.6.6c8 1.45 28.9 1.8 37.25.7 25.5-3.4 33.9-12.25 22.4-23.55-3.85-3.75-4.25-4.65-5.4-12.3-3.35-22.1-15.95-40.2-30.4-43.8-3.3-.8-4.4-2.2-2.85-3.75 2.9-2.9.7-9.8-3.9-12.2-7.05-3.65-15 .5-15 7.9V69h-5.75c-19.75.05-37.7 13.4-45.65 34-1.45 3.8-2.45 4.85-6.65 6.7-17.4 7.7-2.3 26.3 29.55 36.4 3.85 1.2 7.35 2.5 7.75 2.85 1.4 1.2-4.2 20.95-6.85 23.9-1.15 1.35-31.15-17-32.1-19.6-.3-.95-1.15-2.45-1.8-3.25-.7-.85-1.75-4.45-2.4-8-1.9-10.35-8.95-34.65-13.05-45-2.1-5.25-5.1-14.45-6.75-20.5l-2.95-11 5.55-.6c9.25-.95 14.65-5.4 15.7-13 2.2-15.9-21.9-33.75-41.75-30.95-3.55.5-5.55.05-10.75-2.35-8.5-3.9-19.8-4.7-25.05-1.8zm23.2 4c4.35 1.9 4.7 2.3 4.15 4.95-.7 3.45 1.5 5.75 4.55 4.75 1.45-.45 2.05-1.5 2.05-3.55 0-9.05 27-.2 34.75 11.4 12.15 18.2-9.85 32-26.55 16.7-1.85-1.7-3.75-3.05-4.25-3.05-3.35 0 2.6 6.15 9.25 9.6 3.75 1.95 4.3 2.75 7.35 11.25 3.8 10.65 4.1 10.15-5.55 8.95-4.1-.5-14.15-1-22.25-1.1C93.4 80.55 91 80.25 91 79c-.05-5.6 3.55-23 4.75-23 2.7 0 11.25-4.25 11.25-5.6 0-1.9-1.4-1.75-5.25.6C89.85 58.25 72 45.95 73.2 31.3c1-11.95 14.6-16.9 29.05-10.5zM235.1 60.05c4.8 2.55 4.05 9.8-1.15 11.45-2.8.9-7.75-1.25-8.5-3.7-1.85-5.8 4.2-10.65 9.65-7.75zm-6.4 15.55c3.35 2.3 4.55 2.55 9.9 2.15 17.2-1.35 33.2 23.8 33.35 52.5.05 9-.4 9.2-21.45 9.1-39.35-.15-80.55-13.5-79.75-25.85 1.55-24.9 40.1-50.15 57.95-37.9zM110.2 86.75c-1.65 2.05-3.95 4.6-5.1 5.65-1.15 1.05-2.1 2.75-2.1 3.8 0 3.7 4.25 1.45 9.85-5.2 6.35-7.5 7.85-8.25 8.65-4.3 1.5 7.7 4.9 18.2 8.55 26.55 2.25 5.1 4.3 9.8 4.6 10.5.8 1.75-6.7 1.6-13.65-.25-6.8-1.8-7-1.8-7-.1 0 1.35 6.8 3.6 10.95 3.6 2.3 0 2.65 1 .85 2.8-1.55 1.55-5.05 1.55-6.6 0-1.95-1.95-2.65.05-.7 2.2 2.2 2.4 5.25 2.55 8.35.4 2.15-1.5 2.55-1.5 5.6.15 3.5 1.9 6.55 1.45 6.55-.9 0-.95-.7-1.3-1.9-.95-2.1.55-6.1-1.25-6.1-2.75 0-.5 1.6-.95 3.5-.95 4.35 0 4.4-.85.4-9.65-5.25-11.6-5.45-12.35-2.1-8.35 4.35 5.15 7.6 1.8 5.55-5.75-1.05-4-2.55-2.5-1.85 1.85.9 5.15-1.1 5.05-3.75-.15-1-1.9-2.35-3.35-3.05-3.2-1.2.25-6.25-11.55-5.35-12.45.2-.2 2.75 1.25 5.6 3.15 2.9 1.95 5.9 3.55 6.65 3.55 2.75 0 1.3-2.55-3-5.3-8.05-5.05-8.6-7.1-1.55-5.9 5.3.9 5.7 1.6 12.35 21.05 4.75 13.85 12.05 43.55 11.25 45.65-.3.75-5.15 5.4-10.75 10.4-14.05 12.5-14.05 12.5-43.45-4.5C86 148.5 86 148.5 86 139.5c0-7.8-1.6-10.5-6.2-10.5-2.7 0-2.15 1.7.75 2.45 3.1.75 3 3.9-.15 4.35-2.55.35-8.7-6.15-8.15-8.65.25-1.35 1.45-1.6 6.55-1.4 5.8.2 6.2.1 6.2-2 0-1.25.9-3.6 2-5.25 4.9-7.3 7.6-24.15 5-31-1.45-3.85-1.2-4 10.5-4.25l10.65-.25-2.95 3.75zm57.35 27c-3 14.1 37 29.55 76.95 29.7 24.4.1 30.45-2.05 30.55-10.65v-3.3l3 3.25c14.6 16.1-36.65 23.4-78.25 11.15-23.05-6.75-42.45-19.15-40.35-25.8 1.55-4.9 9.1-8.95 8.1-4.35zm-73.2 43c3.95 2.6 12 7 17.9 9.75 10.15 4.75 12.65 6.5 9.2 6.5-.8 0-1.75.65-2.1 1.5-.3.8-.95 1.5-1.45 1.5-2.55 0-31.9-21.7-31.9-23.55 0-1 1.55-.2 8.35 4.3zm11 14.35 6.9 4.85-2.75 1.05c-4.4 1.65-29-19.45-26.4-22.65.9-1.05 2.55 0 8.25 5.3 3.95 3.65 10.25 8.8 14 11.45zM160 155.25c0 5.25-8.2 17.25-12 17.5l-3.5.3 2.5-2.3c3.9-3.55 10-11 10-12.2 0-.55-3.05 2.3-6.75 6.35-5.7 6.2-7.15 7.25-9 6.65-3.2-1-2.9-1.5 3.75-6.45 3.25-2.45 7.6-6.15 9.65-8.25 4.35-4.45 5.35-4.75 5.35-1.6zm49 1.15c2.75.8 4.4 1.9 4.3 2.75-3.7 24.55-6.15 34.85-8.35 34.85-2.3 0-18.25-5.8-26.95-9.8l-6.5-3-3.2-9.8c-3.9-11.75-4.05-11.5 3.85-6.35 3.5 2.25 10.5 6.1 15.6 8.55 6.9 3.3 9.25 4.9 9.25 6.3 0 2.1 5.35 7.1 7.6 7.1 2.7 0-.15-5.7-4.55-9.15l-3-2.35 2.65-5.3c1.4-2.9 2.8-7.55 3.1-10.25.25-2.7.75-4.95 1.1-4.95.3 0 2.65.65 5.1 1.4zm-125.5 5.65c3.4 4.6 13.55 13.9 18.1 16.55 1.75 1 1.7 1.25-1.05 4.5-3.15 3.75-7.5 12.45-7.55 15.05 0 2.2 6.25 3.3 13.25 2.3 5.5-.75 4.85-.2 14.95-11.85 2.15-2.5 2.9-2.85 3.95-1.85 1.5 1.5 11.85 1.7 11.85.25 0-1.95 1.6-.95 3.4 2.1 5.3 9 23.35 11.95 26.3 4.25.8-2.05-5.3-14.2-8.75-17.4l-3.1-2.9 3.2-6.55c1.8-3.6 3.35-6.4 3.45-6.25.5.6 7.6 25.9 9.45 33.75 3 12.6 11.05 66.4 11.05 74 0 2.5-.2 2.55-18.75 5.4-10.3 1.6-22.55 3.55-27.25 4.4-15.85 2.8-55.45 1.55-59.55-1.85-.85-.7-.95-6-.1-5.95.1 0 2.5.65 5.4 1.45 4.55 1.2 5.5 1.2 6.7-.05.75-.75 3-1.4 5-1.4 3.45 0 3.55-.1 3.55-3.85 0-3.7.1-3.8 3.05-3.35l3.1.45-.35-17.15c-.35-19.7.6-21.95 6.45-15 3.8 4.6 4.25 6.9 2.25 12.85-1.9 5.8-1.7 8.9.7 10.4s6.95-2 8.4-6.4l1.15-3.4.7 3.5c1.65 7.7 5.5 10 9.6 5.7 2.6-2.8 2.15-8.6-1-12.9L128.9 238l2.35-.9c4.35-1.65 4.9-3.3 4.45-13.65-.3-7.1-.8-10.05-1.9-10.85-.8-.6-1.8-2.4-2.15-3.95-3.35-13.35-23.1-11.1-25.2 2.9-.65 4.35-3.2 5.5-5.45 2.5-.25-.35-6.05-2.15-12.8-4.05-6.75-1.85-12.45-3.6-12.65-3.95-.25-.35 1.1-6.8 2.9-14.35 2.8-11.8 3.1-16.6.95-14.4-.65.65-6.1 19.55-6.95 24.1-.45 2.5-1.2 3.6-2.45 3.6-2.5 0-3.75 1.85-5.4 8.05-1.45 5.7-2.5 6.25-5.85 3.2-2.85-2.55-2.05-7.25 3.7-21.9C73.6 165.8 77.6 157.2 79.65 157c.1 0 1.85 2.25 3.85 5.05zm54.5 12.7c-.05 10.9-9.25 14.45-13.65 5.25-2.5-5.3-2.7-4.85 2.75-5.9 7.65-1.5 10.9-1.3 10.9.65zm18.1 3.85c3 2.9 8.25 13 7.45 14.35-3.65 5.9-24.55-3.8-24.55-11.4 0-3.05 8.35-.15 12.4 4.35 2.2 2.45 4.6 2.75 4.6.6 0-.85-3.15-3.05-7.25-5.1-8.6-4.3-8.15-3.95-7.2-5.45 1.3-2.15 11.5-.25 14.55 2.65zm-36.1.15c0 .75-3.65 3.05-9.25 6-1.55.75-2.5 1.8-2.2 2.35 1 1.55 2.5 1 7.55-2.65 7.75-5.7 7.65-3.05-.2 5.6l-7.2 7.95h-5.85c-6.45 0-6.55-.1-4.25-5.65 2.5-6 6.25-10.35 10.75-12.35 4.2-1.9 10.65-2.65 10.65-1.25zm2.3 24.35c5.95 3.1 8.65 8.2 5.05 9.6-1.15.45-2.55-.35-4.25-2.35-7-8.15-12.8-1.9-8 8.65 5.8 12.85 15 14.75 13.55 2.8-.65-5.45.45-8.1 2.9-7.15 1.9.75 2.05 17.35.25 19.15-2.65 2.65-6.8 1.35-11.55-3.5-2.55-2.6-4.75-4.25-4.95-3.65-.2.6 2.6 3.95 6.3 7.5 8.6 8.2 12.2 16.55 7.75 18.25-2.1.85-4.35-1.1-4.35-3.8 0-3.55-9.35-19.6-10.65-18.3-.25.25.7 2.6 2.1 5.2 3.05 5.75 3.3 11.35.65 14.6-3.05 3.8-5.6 1.05-3.55-3.8 2.95-7.1 1.05-14.2-5-18.8-3.85-2.95-4.3-7.85-.95-9.8.8-.45 1.4-2.05 1.4-3.6 0-8.85 6.7-14.4 13.3-11zm-37.55 9.25c13.2 3.9 12.5 3.4 11.15 7.7-.55 1.9-1.35 13.2-1.7 25.1-.4 11.95-1 22-1.4 22.4-4.7 4.7-5.25-15.45-1.25-46.55.5-4 .4-4.3-.85-2.75-2.25 2.75-4 15.75-4.6 34.45l-.6 17.2-11.5-3.85c-16.6-5.5-15.3-4.6-14.55-9.95 2.5-18.05 6.8-40.4 9.1-46.95.5-1.5-.2-1.65 16.2 3.2zm37-.1c3.4 2.75 4.1 4.05 4.7 8.15 1.3 9.4-3.15 8.05-8.55-2.6-4.4-8.65-2.75-10.95 3.85-5.55zm-18.95 9c-.25 3.5-.65 4.25-2.3 4.25-2 0-2.5-3.45-1.05-7.2 1.3-3.35 3.65-1.3 3.35 2.95zm-2.3 19c.85 15.45.55 19.15-1.75 19.55-1.95.4-2.45-10.9-1.1-25.05.95-10.25 2.05-8.1 2.85 5.5z"/>
  <path d="M245.75 82.6c-.35.35.75 2.4 2.5 4.55 2.15 2.65 3.45 3.55 4.15 2.85.7-.7-.05-2.15-2.5-4.55-1.9-1.95-3.8-3.2-4.15-2.85zm7.95 11.05c-.35.3.05 1.9.85 3.45 2.45 4.75 4.3 14.8 5.05 27.2.85 14.65 2.75 15.55 3.2 1.45.45-16.1-5.15-36.05-9.1-32.1zm-140.25 8.45c2.65 8.45.3 11.4-3.1 3.95-1.05-2.2-2.4-4-3.1-4-2.2-.05-1.35 3.4 1.8 7.2 5.7 6.9 11.05 3.5 7.8-4.95-1.6-4.2-4.65-6.15-3.4-2.2zm-13.2 21.6c-1.95.7-1.5 2.1 1.95 6.4 6.15 7.65 14.75 10.75 25.35 9.05 6.55-1.05 6.75-.9 8.5 4.85 5.15 17.35-1.3 25.05-15.05 18-3.7-1.9-6.35-1.35-3.75.8 5.55 4.55 18.75 5.15 22.1 1 2.65-3.25 1.9-16.15-1.35-23.65l-2.3-5.3-3.6.8c-12.2 2.85-28.1-2.1-28.1-8.7 0-2.1-2.05-3.85-3.75-3.25zM157 235.9c-9.15 9.3-22.5 19.4-32.5 24.7-6.2 3.2-9.6 6.4-6.9 6.4 6.05 0 49.4-33.3 49.4-37.9 0-2.4-2.85-.5-10 6.8zm-1 16.8c-5.5 4.35-15.2 9.1-20.25 9.95-2.35.4-3.75 1.15-3.75 2.1 0 1.15.8 1.35 3.75.8C144 264.05 162 253.6 162 250.3c0-1.95-1.1-1.55-6 2.4zm-75.95-30.5c-1.5 5.05-6.65 15.5-12.3 25.1-4 6.75-4.4 10.4-.6 5.75 4.75-5.85 15.25-26.8 16-31.95.6-4.2-1.75-3.35-3.1 1.1z"/>
</svg>
